<svg id="artwork" xmlns="http://www.w3.org/2000/svg" xmlns:xlink="http://www.w3.org/1999/xlink" viewBox="0 0 358.6 64"><defs><style>.cls-1{fill:#1e1e1e;}.cls-2{fill:url(#linear-gradient);}.cls-3{fill:url(#linear-gradient-2);}</style><linearGradient id="linear-gradient" x1="13.22" y1="971.91" x2="50.78" y2="1003.43" gradientTransform="translate(0 -955.67)" gradientUnits="userSpaceOnUse"><stop offset="0" stop-color="#ff0"/><stop offset="0.27" stop-color="#fef10c"/><stop offset="0.45" stop-color="#fde516"/><stop offset="0.64" stop-color="#fde113"/><stop offset="0.82" stop-color="#fed508"/><stop offset="0.92" stop-color="#fc0"/></linearGradient><linearGradient id="linear-gradient-2" x1="38.93" y1="996.43" x2="50.6" y2="1003.73" gradientTransform="translate(0 -955.67)" gradientUnits="userSpaceOnUse"><stop offset="0.1" stop-color="#874400"/><stop offset="0.26" stop-color="#d88a00"/><stop offset="0.37" stop-color="#e79d00"/><stop offset="0.52" stop-color="#f2b400"/><stop offset="0.7" stop-color="#fad202"/><stop offset="0.9" stop-color="#fedf03"/></linearGradient></defs><title>CBA--Horizontal-Wordmark</title><path class="cls-1" d="M75.4,32c0-7.66,4.21-11.62,9.86-11.62,4.15,0,7.79,2.27,8.4,6.73H90.12c-.45-2.74-2.59-3.73-4.82-3.73-3.71,0-6.45,2.49-6.45,8.62s2.74,8.62,6.45,8.62c2.23,0,4.37-1,4.82-3.74h3.54c-.61,4.47-4.25,6.74-8.4,6.74C79.61,43.6,75.4,39.64,75.4,32Z" transform="translate(0)"/><path class="cls-1" d="M95.1,35.07c0-5.23,3.22-8.55,7.66-8.55s7.69,3.32,7.69,8.55-3.22,8.56-7.69,8.56S95.1,40.31,95.1,35.07Zm12,0c0-3.95-1.75-5.87-4.31-5.87s-4.34,1.92-4.34,5.87S100.21,41,102.76,41,107.07,39,107.07,35.07Z" transform="translate(0)"/><path class="cls-1" d="M136.06,32.52V43.21h-3.32V33c0-2.62-1.18-3.57-3-3.57-2.11,0-3.8,1.72-3.8,4.53v9.22h-3.32V33c0-2.62-1.18-3.57-3-3.57-2.11,0-3.8,1.72-3.8,4.53v9.22H112.5V26.93h3.32v2.49a5.41,5.41,0,0,1,4.85-2.9,4.89,4.89,0,0,1,4.79,3.22,5.59,5.59,0,0,1,5.24-3.22C133.63,26.52,136.06,28.47,136.06,32.52Z" transform="translate(0)"/><path class="cls-1" d="M162.25,32.52V43.21h-3.32V33c0-2.62-1.19-3.57-3-3.57-2.11,0-3.8,1.72-3.8,4.53v9.22h-3.32V33c0-2.62-1.18-3.57-3-3.57-2.11,0-3.8,1.72-3.8,4.53v9.22h-3.32V26.93H142v2.49a5.4,5.4,0,0,1,4.85-2.9,4.89,4.89,0,0,1,4.79,3.22,5.59,5.59,0,0,1,5.23-3.22C159.82,26.52,162.25,28.47,162.25,32.52Z" transform="translate(0)"/><path class="cls-1" d="M164.41,35.07c0-5.23,3.22-8.55,7.66-8.55s7.69,3.32,7.69,8.55-3.22,8.56-7.69,8.56S164.41,40.31,164.41,35.07Zm12,0c0-3.95-1.76-5.87-4.31-5.87s-4.34,1.92-4.34,5.87S169.51,41,172.07,41,176.38,39,176.38,35.07Z" transform="translate(0)"/><path class="cls-1" d="M195.86,32.52V43.21h-3.32V33.35c0-2.84-1.38-3.89-3.26-3.89-2,0-4.09,1.34-4.09,4.63v9.12h-3.32V26.93h3.32v2.59a5.6,5.6,0,0,1,5.14-3C193.3,26.52,195.86,28.47,195.86,32.52Z" transform="translate(0)"/><path class="cls-1" d="M216.4,26.93h3.26l-4.12,16.28h-4.06l-3.06-12.35-3.16,12.35h-4.09l-4.11-16.28h3.35l3.09,13.28,3.29-13.28h3.39l3.22,13Z" transform="translate(0)"/><path class="cls-1" d="M235,35.94H223.49c.26,3.28,1.92,5,4.76,5,1.66,0,3-.67,3.45-2H235C234,42,231.41,43.63,228,43.63c-4.63,0-7.79-3.32-7.79-8.56s3.19-8.55,7.85-8.55c4.15,0,7,2.68,7,7.79A13.55,13.55,0,0,1,235,35.94Zm-11.39-2.59h8.27c-.13-3.13-1.86-4.18-3.9-4.18C225.66,29.17,224,30.54,223.56,33.35Z" transform="translate(0)"/><path class="cls-1" d="M252.21,40.72v2.56a6.58,6.58,0,0,1-1.53.16,3.05,3.05,0,0,1-3.26-2.17,6.08,6.08,0,0,1-5.13,2.36c-3.64,0-5.69-2.33-5.69-5.27,0-3.13,2.46-4.82,5.56-5l5.07-.19v-.79A2.89,2.89,0,0,0,244,29.2c-2.24,0-3.19,1-3.55,2.36h-3.54c.67-3.28,3.26-5,7.12-5,4.08,0,6.38,2.2,6.38,5.68v7.15c0,1,.51,1.41,1.28,1.41A2.9,2.9,0,0,0,252.21,40.72Zm-5-3.25V35.65l-4.5.22c-1.85.1-2.84.86-2.84,2.33,0,1.69,1.09,2.81,3.23,2.81S247.23,39.73,247.23,37.47Z" transform="translate(0)"/><path class="cls-1" d="M254.11,43.21V20.74h3.32V43.21Z" transform="translate(0)"/><path class="cls-1" d="M309.38,36.8c0,4.08-2.71,6.41-7.53,6.41H292.5V20.74h9.67c4,0,6.57,2.2,6.57,5.81a5.19,5.19,0,0,1-3.06,5A5.38,5.38,0,0,1,309.38,36.8ZM295.82,23.68v6.64h5.71c2.49,0,3.86-1.12,3.86-3.32s-1.37-3.32-3.86-3.32ZM302,40.27c2.61,0,4-1.21,4-3.51s-1.44-3.51-4-3.51h-6.16v7Z" transform="translate(0)"/><path class="cls-1" d="M326.46,40.72v2.56a7.18,7.18,0,0,1-1.53.15,3.05,3.05,0,0,1-3.26-2.17,6.12,6.12,0,0,1-5.14,2.37c-3.64,0-5.68-2.33-5.68-5.27,0-3.13,2.46-4.82,5.55-5l5.08-.19v-.8c0-2.07-1.09-3.22-3.26-3.22s-3.19,1-3.54,2.36h-3.54c.67-3.29,3.25-5,7.12-5,4.08,0,6.38,2.2,6.38,5.68v7.15c0,1,.51,1.4,1.28,1.4A3.92,3.92,0,0,0,326.46,40.72Zm-5-3.25V35.65l-4.5.22c-1.85.1-2.84.86-2.84,2.33,0,1.69,1.08,2.81,3.22,2.81C319.66,41,321.48,39.73,321.48,37.47Z" transform="translate(0)"/><path class="cls-1" d="M342.16,32.52V43.21h-3.32V33.35c0-2.84-1.38-3.9-3.26-3.9-2,0-4.08,1.34-4.08,4.63v9.13h-3.32V26.93h3.32v2.59a5.56,5.56,0,0,1,5.13-3C339.6,26.52,342.16,28.46,342.16,32.52Z" transform="translate(0)"/><path class="cls-1" d="M358.6,26.93l-6.92,7.89,6.92,8.39h-4.21L348,35.3v7.91h-3.32V20.74H348V34.63l6.61-7.7Z" transform="translate(0)"/><path class="cls-1" d="M262,39.06V29.71h-2.77V26.93H262V23.2l3.26-2v5.77h3.61v2.78h-3.61V38.2c0,1.63.7,2.24,2,2.24a10.85,10.85,0,0,0,1.85-.16V43a8.45,8.45,0,0,1-2.71.42A4.05,4.05,0,0,1,262,39.06Z" transform="translate(0)"/><path class="cls-1" d="M271.19,43.21V20.74h3.32v8.78a6.43,6.43,0,0,1,5.68-3c3,0,5.52,1.95,5.52,6V43.21h-3.32V33.35a3.56,3.56,0,0,0-3.79-3.89c-2.05,0-4.09,1.34-4.09,4.63v9.12Z" transform="translate(0)"/><polyline class="cls-2" points="32 0 64 32 32 64 0 32 32 0"/><polygon class="cls-3" points="44.15 35.24 32 64 32 64 64 32 55.69 23.68 44.15 35.24"/></svg>