<?xml version="1.0" encoding="utf-8"?>
<!-- Generator: Adobe Illustrator 18.0.0, SVG Export Plug-In . SVG Version: 6.00 Build 0)  -->
<!DOCTYPE svg PUBLIC "-//W3C//DTD SVG 1.0//EN" "http://www.w3.org/TR/2001/REC-SVG-20010904/DTD/svg10.dtd">
<svg version="1.0" id="Layer_6" xmlns="http://www.w3.org/2000/svg" xmlns:xlink="http://www.w3.org/1999/xlink" x="0px" y="0px"
	 viewBox="0 0 121 33" enable-background="new 0 0 121 33" xml:space="preserve">
<g>
	<g>
		<g>
			<polygon fill="#685AC0" points="0,0 0,11 5.5,5.5 			"/>
			<polygon fill="#A094FC" points="11,0 0,0 5.5,5.5 			"/>
			<polygon fill="#685AC0" points="11,11 11,0 5.5,5.5 			"/>
			<polygon fill="#20024E" points="0,11 11,11 5.5,5.5 			"/>
			<polygon fill="#C2BFEB" points="11,0 11,11 16.5,5.5 			"/>
			<polygon fill="#685AC0" points="22,0 11,0 16.5,5.5 			"/>
			<polygon fill="#20024E" points="22,11 22,0 16.5,5.5 			"/>
			<polygon fill="#685AC0" points="11,11 22,11 16.5,5.5 			"/>
			<polygon fill="#C2BFEB" points="11,11 11,22 16.5,16.5 			"/>
			<polygon fill="#A094FC" points="22,11 11,11 16.5,16.5 			"/>
			<polygon fill="#685AC0" points="22,22 22,11 16.5,16.5 			"/>
			<polygon fill="#20024E" points="11,22 22,22 16.5,16.5 			"/>
			<polygon fill="#685AC0" points="0,11 0,22 5.5,16.5 			"/>
			<polygon fill="#C2BFEB" points="11,11 0,11 5.5,16.5 			"/>
			<polygon fill="#20024E" points="11,22 11,11 5.5,16.5 			"/>
			<polygon fill="#A094FC" points="0,22 11,22 5.5,16.5 			"/>
			<polygon fill="#C2BFEB" points="11,22 11,33 16.5,27.5 			"/>
			<polygon fill="#685AC0" points="22,22 11,22 16.5,27.5 			"/>
			<polygon fill="#C2BFEB" points="11,22 0,22 5.5,27.5 			"/>
			<polygon fill="#20024E" points="11,33 11,22 5.5,27.5 			"/>
		</g>
	</g>
	<g>
		<path fill="#20024E" d="M54.6,31.8h4.1v-0.9h-1.4v-12c0-0.4-0.2-0.5-0.4-0.5h-2.4v1h1c0.2,0,0.4,0.2,0.4,0.4v10.7
			c0,0.2-0.2,0.4-0.4,0.4h-1V31.8z"/>
		<path fill="#20024E" d="M76.1,21.6c-2.9,0-4.9,2.1-4.9,5.1c0,3.1,2,5.1,4.9,5.1c2.9,0,4.9-2,4.9-5.1C81,23.7,79,21.6,76.1,21.6
			 M76.1,30.9c-2.2,0-3.5-1.6-3.5-4.1c0-2.6,1.4-4.1,3.5-4.1c2.2,0,3.5,1.6,3.5,4.1C79.6,29.3,78.2,30.9,76.1,30.9"/>
		<path fill="#20024E" d="M93,31.8h4.3v-0.9h-1.6l0-6.3l0,0c1-1.1,1.9-1.8,3.3-1.8h0.1v-1c0,0-0.1,0-0.2,0c-0.5,0-1.7,0.2-3.1,1.6
			l-0.2,0.2v-1.2c0-0.4-0.2-0.5-0.4-0.5h-2.4v0.9h1c0.2,0,0.4,0.2,0.4,0.4v7.3c0,0.2-0.2,0.4-0.4,0.4h-1V31.8z"/>
		<path fill="#20024E" d="M119.1,25.8h-6.3l0-0.1c0.2-2,1.5-3.2,3.3-3.2C118,22.5,119,23.6,119.1,25.8L119.1,25.8z M116.1,21.5
			c-2.7,0-4.6,2-4.7,4.9l0,0.3c0,3.1,2.1,5.2,5.1,5.2c1.3,0,2.5-0.4,3.4-1.2c0.1-0.1,0.2-0.2,0.3-0.3l0,0v-0.7h-0.9l-0.1,0.1
			c-0.7,0.7-1.6,1.1-2.7,1.1c-2.2,0-3.6-1.6-3.7-4l0-0.1h7.5l0.1,0l0-0.3c0-0.1,0-0.2,0-0.3c0-1.6-0.4-2.8-1.2-3.6
			C118.5,21.9,117.5,21.5,116.1,21.5"/>
		<path fill="#20024E" d="M52.2,25.8h-6.3l0-0.1c0.2-2,1.5-3.2,3.3-3.2C51.1,22.5,52.1,23.6,52.2,25.8L52.2,25.8z M49.2,21.5
			c-2.7,0-4.6,2-4.7,4.9l0,0.3c0,3.1,2.1,5.2,5.1,5.2c1.3,0,2.5-0.4,3.4-1.2c0.1-0.1,0.2-0.2,0.3-0.3l0,0v-0.7h-0.9l-0.1,0.1
			c-0.6,0.7-1.6,1.1-2.7,1.1c-2.2,0-3.6-1.6-3.7-4l0-0.1h7.5l0.1,0l0-0.3c0-0.1,0-0.2,0-0.3c0-1.6-0.4-2.8-1.2-3.6
			C51.6,21.9,50.5,21.5,49.2,21.5"/>
		<path fill="#20024E" d="M62.1,30.7l0.1,0.1c0.5,0.5,1.4,1,3,1c0.9,0,2.1-0.2,3.1-1.1c1-0.9,1.5-2.3,1.5-4.1c0-1.8-0.4-3.1-1.3-4
			c-0.9-0.9-2-1.1-2.7-1.1c-1.4,0-2.5,0.5-3.5,1.6l-0.2,0.2v-4.5c0-0.4-0.2-0.5-0.4-0.5h-2.4v0.9h1c0.2,0,0.4,0.2,0.4,0.4l0,10.7
			c0,0.2-0.2,0.4-0.4,0.4h-0.5v0.9h2.3V30.7z M65.1,30.9c-1.3,0-2.2-0.4-3-1.2l0,0v-5l0,0c1-1.2,2.1-1.8,3.3-1.8c2,0,3,1.3,3,4
			C68.4,30.5,66.1,30.9,65.1,30.9"/>
		<path fill="#20024E" d="M81.2,22.7h1c0.2,0,0.4,0.2,0.4,0.4l0,6.5c0.1,1.4,1.1,2.3,2.7,2.3c1.7,0,3-0.9,3.8-1.5l0.1-0.1v1.5h2.7
			v-0.9h-1c-0.2,0-0.4-0.2-0.4-0.4v-8.7h-2.8v0.9h1.4v6.6l0,0c-0.9,0.7-2.2,1.5-3.6,1.5c-1.2,0-1.7-0.5-1.7-1.8v-7.3h-2.8V22.7z"/>
		<path fill="#20024E" d="M106.7,31.8h4.3v-0.9h-0.9c-0.2,0-0.4-0.2-0.4-0.4v-6.2c0-1.7-0.9-2.6-2.8-2.6c-1.6,0-3,0.8-3.9,1.6
			l-0.1,0.1v-1.1c0-0.4-0.2-0.5-0.4-0.5h-2.4v0.9h1c0.2,0,0.4,0.2,0.4,0.4v7.3c0,0.2-0.2,0.4-0.4,0.4h-1v0.9h4.3v-0.9h-1.6v-6.5l0,0
			c1.3-1,2.5-1.5,3.6-1.5c1.1,0,1.8,0.3,1.8,1.8v6.3h-1.6V31.8z"/>
		<path fill="#20024E" d="M56.1,15.1h4.3v-0.9h-0.9c-0.2,0-0.4-0.2-0.4-0.4V7.5c0-1.7-0.9-2.6-2.8-2.6c-1.6,0-3,0.8-3.9,1.6
			l-0.1,0.1V5.5C52.4,5.1,52.2,5,52,5h-2.4V6h1.1c0.2,0,0.4,0.2,0.4,0.4v7.3c0,0.2-0.2,0.4-0.4,0.4h-1v0.9h4.4v-0.9h-1.7V7.6l0,0
			c1.3-1,2.5-1.5,3.7-1.5c1.1,0,1.8,0.3,1.8,1.8v6.3h-1.7V15.1z"/>
		<path fill="#20024E" d="M86.6,15.1h4.3v-0.9h-1.6V6h2.3V5h-2.3V4.2c0-1.4,0.7-1.6,1.5-1.6c0.3,0,0.5,0,0.7,0.1
			c0.2,0,0.3,0.1,0.3,0.1h0.7v-1l-0.1,0c-0.6-0.1-1-0.2-1.8-0.2c-1.8,0-2.7,0.9-2.7,2.6V5h-1.5v1H88v7.7c0,0.2-0.2,0.4-0.4,0.4h-1
			V15.1z"/>
		<path fill="#20024E" d="M43.6,9.2c-2.6,0-4,1.1-4,3c0,1.9,1.3,3,3.4,3c1.2,0,2.1-0.4,2.9-1.2l0.2-0.1l0,1.2h2.6v-0.9h-0.8
			c-0.2,0-0.4-0.2-0.4-0.4V7.8c0-1.9-1.1-2.8-3.5-2.8c-1.8,0-2.9,0.5-3.6,0.8l-0.1,0v1.1l0.7,0l0,0C41.5,6.5,42.3,6,43.8,6
			C45.3,6,46,6.6,46,7.9v1.6l-0.1,0C45.2,9.3,44.5,9.2,43.6,9.2 M43.1,14.2c-1.5,0-2.2-0.6-2.2-2c0-1.4,1-2,2.9-2
			c0.7,0,1.4,0.1,2.2,0.2l0.1,0v2.2l0,0C45.4,13.4,44.6,14.2,43.1,14.2"/>
		<path fill="#20024E" d="M69.2,15.1h1.8v-0.9h-0.5c-0.2,0-0.6-0.2-0.9-0.6l-3-4.3l2.7-2.8C69.6,6.3,70,6,70.2,6H71V5h-3.7v1H68
			c0.1,0,0.2,0,0.2,0.1c0,0.1,0,0.2-0.1,0.3l-3.9,4.1V2.2c0-0.4-0.2-0.5-0.4-0.5h-2.4v1h1c0.2,0,0.4,0.3,0.4,0.4v10.7
			c0,0.2-0.2,0.4-0.4,0.4h-1v0.9h4.4v-0.9h-1.6v-2.3l1.6-1.7l0.1,0.1L69.2,15.1z"/>
		<path fill="#20024E" d="M80.8,4.9c-2.9,0-4.9,2.1-4.9,5.1c0,3.1,2,5.1,4.9,5.1c2.9,0,4.9-2.1,4.9-5.1C85.7,7,83.7,4.9,80.8,4.9
			 M80.8,14.2c-2.2,0-3.5-1.6-3.5-4.1c0-2.6,1.4-4.1,3.5-4.1c2.2,0,3.5,1.6,3.5,4.1C84.3,12.6,83,14.2,80.8,14.2"/>
		<path fill="#20024E" d="M28.1,15.1h5.4c3.1,0,4.8-1.3,4.8-3.7c0-1.7-0.9-2.8-2.5-3.3L35.5,8l0.3-0.1c1.3-0.5,1.9-1.4,1.9-2.8
			c0-2.3-1.5-3.4-4.4-3.4h-5.2v1h1c0.3,0,0.5,0.3,0.5,0.5v10.5c0,0.2-0.3,0.5-0.5,0.5h-1V15.1z M33.5,14.1H31V8.6h2.3
			c2.5,0,3.6,0.8,3.6,2.7C36.9,13.2,35.8,14.1,33.5,14.1 M33.2,7.6H31V2.7h2.2c2.1,0,3.1,0.7,3.1,2.4C36.3,6.8,35.3,7.6,33.2,7.6"/>
		<path fill="#20024E" d="M42.7,19.3h1v-0.9H40l-4.1,11.4l-0.1-0.2l-4-11.2h-3.7v0.9h1c0.3,0,0.6,0.3,0.6,0.6v10.5
			c0,0.3-0.2,0.6-0.6,0.6h-1v0.9h4.1v-0.9h-1.5V19.3h0l4.5,12.5h0.9l4.5-12.5h0.1v11.6h-1.5v0.9h4.3v-0.9h-0.9
			c-0.3,0-0.5-0.2-0.5-0.5V19.8C42.2,19.6,42.5,19.3,42.7,19.3"/>
	</g>
</g>
</svg>
