<svg xmlns="http://www.w3.org/2000/svg" width="90" height="41" viewBox="0 0 90 41"><g><path fill="#E91B2B" d="M58 25.5c-.9 0-2-.5-2-1.5V2c0-1 1-2 2-2h30c1 0 2 1 2 2v38.2c0 .5-.4.8-.9.8 0 0 .3 0 0 0-.6 0-.8-.5-.9-.8C79.7 25.5 58.9 25.5 58 25.5z"/><path fill="#fff" d="M80 7l-2.1 8.5s0 .1.1.1h4.4s.1 0 .1-.1L80.4 7c-.1-.4-.3-.4-.4 0zm2.3-4.2c.4 0 .7.2.7.5l4.7 18.3c.1.2.1.4.1.5 0 .3-.3.6-.7.6h-2.3c-.4 0-.6-.3-.7-.6l-.9-3.5h-6.1l-.9 3.5c-.1.3-.3.6-.7.6h-2.3c-.4 0-.7-.3-.7-.6 0 0 0-.3.1-.5l4.7-18.3c.1-.3.3-.5.7-.5h4.3zM62.3 7.5c0 1.4.7 1.9 2.3 2.8l3.5 2c2.4 1.4 3.3 2.9 3.3 5.5 0 3.5-2.7 5.3-6.5 5.3-3.7 0-6.4-1.8-6.4-5.4v-1.2c0-.4.4-.8.9-.8h2c.5 0 .9.4.9.8v1.2c0 1.4 1.1 2.3 2.6 2.3 1.7 0 2.6-.7 2.6-2.2 0-1.8-1.5-2.6-2.6-3.2L61 12.4c-1.8-1-2.5-3-2.5-4.6 0-3.5 2.6-5.6 6.5-5.6 3.7 0 6.4 1.9 6.4 5.5v.6c0 .4-.4.7-.9.7h-2c-.5 0-.9-.4-.9-.8v-.6c0-1.4-.9-2.6-2.6-2.6-1.7 0-2.7.9-2.7 2.5z"/><g fill="#002F6C"><path d="M21.5 15.7c0-.1 0-.1 0 0l-3.6 1.4c-1 .4-1.2 1.1-1.2 1.7 0 1 .3 1.9 2.3 1.9 1.4 0 2.4-1 2.4-2.2l.1-2.8zM13 19.2c0-2.3 1.2-3.6 3.1-4.3l3.8-1.4c1.2-.4 1.6-.8 1.6-1.6 0-1-.8-1.7-2.2-1.7-1.3 0-2.2.7-2.2 1.8 0 .4-.4.8-.9.8h-1.7c-.5 0-.9-.4-.9-.8 0-2.6 2.3-4.6 5.7-4.6 3.7 0 5.5 2.2 5.5 4.9v9.8c0 .4-.4.8-.9.8h-1.7c-.5 0-.9-.4-.9-.8V22c0-.3-.1-.3-.3-.1-.9.9-2.2 1.4-3.6 1.4-1.8-.1-4.4-1.1-4.4-4.1"/><path d="M41.1 3.8c0-.4.4-.8.9-.8h1.7c.5 0 .9.4.9.8v9.6c0 .3.1.3.3.1l3.9-4.6c.3-.4.5-.6 1-.6h2.1c.5 0 .8.2.8.5 0 .1-.1.4-.2.5l-4.4 5.2c-.1.1-.1.2 0 .2l5 7c.1.2.1.3.1.4 0 .4-.4.7-.9.7h-1.9c-.5 0-.8-.4-1.1-.8L45 15.8c-.2-.3-.3-.2-.3.1V22c0 .4-.4.8-.9.8h-1.7c-.5 0-.9-.4-.9-.8l-.1-18.2zM38.8 11.6c0-2.2-1.7-4.2-4.1-4.2-1.5 0-2.8.6-3.5 1.6-.2.3-.3.2-.3-.1v-.2c0-.4-.4-.8-.9-.8h-1.7c-.5 0-.9.4-.9.8v13.5c0 .4.4.8.9.8H30c.5 0 .9-.4.9-.8V11.6c.3-.5.9-1.1 1.7-1.3.2 0 .4-.1.6-.1.7 0 1.2.2 1.6.6l.1.1c.3.3.5.7.5 1.1v10.2c0 .4.4.8.9.8H38c.5 0 .9-.4.9-.8l-.1-10.6zM11.5 11.3c0-2.1-1.9-3.9-4.1-3.9-1.6 0-2.8.6-3.5 1.6-.2.3-.4.2-.4-.1V3.8c0-.4-.4-.8-.9-.8H.9c-.5 0-.9.4-.9.8v18.3c0 .4.4.8.9.8h1.7c.5 0 .9-.4.9-.8v-.2c0-.3.1-.4.3-.1.7 1 2 1.4 3.5 1.4 2.3 0 4.1-1.6 4.1-4 0 0 .1-1.5.1-3.9v-4zm-3.5 7c0 1.3-.8 2.2-2.2 2.2-.9 0-1.9-.6-2.2-1.4v-7.4c.4-.8 1.3-1.3 2.2-1.3 1.4 0 2.2.9 2.2 2.2v5.7z"/></g></g></svg>