<svg viewBox="0 0 80 40" fill="none" xmlns="http://www.w3.org/2000/svg"><g clip-path="url(#clip0)"><path d="M47.56 11.5c.51-.51.51-1.33 0-1.84s-1.33-.51-1.84 0-.51 1.33 0 1.84 1.33.51 1.84 0zm2.14 19.61a1.011 1.011 0 10-1.41-1.45 1.011 1.011 0 001.41 1.45zm-5.73-17.08c.6.4 1.4.24 1.8-.35.4-.6.24-1.4-.35-1.8a1.3 1.3 0 00-1.8.35c-.41.59-.25 1.4.35 1.8-.01 0-.01 0 0 0zm6.14 18.64c.45.32 1.09.22 1.41-.24.32-.46.22-1.09-.24-1.41a1.012 1.012 0 00-1.17 1.65zm1.85-21.78c-.3-.47-.93-.6-1.4-.3-.47.31-.6.93-.3 1.4.31.47.93.6 1.4.29.47-.31.6-.92.3-1.39zM49.6 9.81a1.301 1.301 0 00-1.48-2.14c-.59.4-.74 1.21-.34 1.8v.01c.41.59 1.22.73 1.82.33zm-7.05 16.3c.7-.14 1.16-.82 1.03-1.52a1.31 1.31 0 00-1.52-1.03c-.7.14-1.16.82-1.03 1.52.13.71.82 1.17 1.52 1.03zm1.95 1.45c-.28-.66-1.04-.96-1.7-.68h-.01c-.66.29-.96 1.05-.68 1.71.27.66 1.03.98 1.7.71.66-.27.98-1.03.71-1.7-.01-.01-.01-.02-.02-.04zM42 23.08c.72 0 1.3-.58 1.3-1.3 0-.72-.58-1.3-1.3-1.3-.72 0-1.3.58-1.3 1.3 0 .72.58 1.3 1.3 1.3zm.66-6a1.3 1.3 0 001.69-.72 1.3 1.3 0 00-.72-1.69 1.3 1.3 0 00-1.69.72c-.27.67.05 1.42.72 1.69zm-.62 3.02c.7.13 1.39-.33 1.52-1.03.13-.7-.33-1.39-1.03-1.52-.7-.13-1.39.33-1.52 1.03-.14.7.32 1.38 1.02 1.52 0-.01.01 0 .01 0zm3.44 2.45c.56.01 1.02-.43 1.03-.99.01-.56-.43-1.02-.99-1.03-.56-.01-1.02.43-1.03.99-.01.55.43 1.01.99 1.03zm6.58-14.11c.66-.29.96-1.05.68-1.71-.29-.66-1.05-.96-1.71-.68-.66.28-.96 1.05-.68 1.7.28.67 1.04.98 1.71.69 0 0-.01 0 0 0zm-2.11 5.22a1.011 1.011 0 10-1.43-.02c.38.4 1.02.41 1.43.02-.01 0-.01 0 0 0zm-2.99.39a1.01 1.01 0 101.65 1.17c.32-.46.22-1.09-.24-1.41a.997.997 0 00-1.4.23l-.01.01zm1.09 15.31c.47-.31.6-.93.29-1.4-.3-.47-.93-.6-1.4-.3-.47.31-.6.93-.29 1.4.31.47.93.61 1.4.3zm6.99-21.84c.7-.14 1.16-.82 1.03-1.52a1.31 1.31 0 00-1.52-1.03c-.7.14-1.16.82-1.03 1.52.13.71.81 1.16 1.52 1.03zm-2.52 3.08a1.01 1.01 0 101.89-.711 1.01 1.01 0 00-1.89.711zm-6.85 5.7c-.23.51-.01 1.11.5 1.34h.01a1.014 1.014 0 10-.51-1.34zm.18 8.55a1.008 1.008 0 10-1.16-.83v.01c.08.54.6.91 1.16.82zm.81 2.25a1.01 1.01 0 10-.711-1.89 1.01 1.01 0 00.711 1.89zm-.79 2.93c-.4-.59-1.21-.74-1.8-.34h-.01c-.59.4-.74 1.21-.34 1.8v.01c.4.59 1.21.74 1.8.34h.01c.59-.41.74-1.22.34-1.81zm-1.08-11.09c-.12.55.23 1.08.78 1.2.55.12 1.08-.23 1.2-.78.12-.55-.23-1.08-.78-1.2-.54-.11-1.08.24-1.2.78zm28.86 4.53c-.7-.13-1.39.33-1.52 1.03-.13.7.33 1.39 1.03 1.52.7.13 1.39-.33 1.52-1.03a1.3 1.3 0 00-1.03-1.52zm-10.49 9.49a1.01 1.01 0 10-.59 1.3c.53-.19.79-.77.59-1.3zm-15.6-.9c-.51-.51-1.33-.51-1.84 0s-.51 1.33 0 1.84 1.33.51 1.84 0 .51-1.33 0-1.84zm22.12-6.67c.55.12 1.08-.23 1.2-.78.12-.55-.23-1.08-.78-1.2-.55-.12-1.08.23-1.2.78-.11.55.24 1.08.78 1.2zm-6.06 9.73a1.296 1.296 0 101.7.68v-.01c-.28-.65-1.04-.95-1.7-.67zm4.55-8.69c-.23.51-.01 1.11.5 1.34h.01a1.014 1.014 0 00.83-1.85c-.51-.22-1.11 0-1.34.51zm-1.09 1.91a1.01 1.01 0 101.65 1.17c.32-.46.22-1.09-.24-1.41a1.01 1.01 0 00-1.41.24zm5.94-1.86a1.3 1.3 0 00-1.69.72 1.3 1.3 0 00.72 1.69 1.3 1.3 0 001.69-.72c.27-.66-.05-1.42-.72-1.69zm-1.3 3.05a1.3 1.3 0 00-1.8.35c-.4.6-.24 1.4.35 1.8.6.4 1.4.24 1.8-.35.4-.59.24-1.4-.35-1.8zm-3.6 2.53c-.51.51-.51 1.33 0 1.84s1.33.51 1.84 0 .51-1.33 0-1.84-1.33-.51-1.84 0zm-4.1-.78c-.47.31-.6.93-.3 1.4.31.47.93.6 1.4.29.47-.31.6-.93.3-1.4-.3-.47-.93-.6-1.4-.29zm2.07 2.48c-.59.4-.74 1.21-.34 1.8v.01a1.299 1.299 0 002.14-1.47c-.4-.6-1.21-.75-1.8-.34zm-.35-3.86a1.011 1.011 0 101.43.02c-.39-.4-1.03-.4-1.43-.02zm-10.31 2.95c-.55-.12-1.08.23-1.2.78-.12.55.23 1.08.78 1.2.55.12 1.08-.23 1.2-.77.12-.55-.23-1.09-.78-1.21zm-2.24-.74a1.014 1.014 0 10-.83 1.852 1.014 1.014 0 00.83-1.852zm1.93 3.96c-.7-.13-1.39.33-1.52 1.03-.13.7.33 1.39 1.03 1.52.7.13 1.39-.33 1.52-1.03.14-.71-.32-1.39-1.03-1.52zm5.53-.02c-.7.14-1.16.82-1.03 1.52.14.7.82 1.16 1.52 1.03.7-.14 1.16-.82 1.03-1.52-.14-.71-.82-1.17-1.52-1.03zm-8.23-.78a1.3 1.3 0 00-1.69.72 1.3 1.3 0 00.72 1.69 1.3 1.3 0 001.69-.72c.27-.66-.06-1.42-.72-1.69zm-2.68-1.42a1.3 1.3 0 00-1.8.35c-.4.6-.24 1.4.35 1.8.6.4 1.4.24 1.8-.35.4-.59.25-1.39-.35-1.8 0 .01 0 .01 0 0zm10.33 1.1c.55-.09.92-.61.83-1.16v-.01a1.008 1.008 0 10-1.99.33c.09.56.61.93 1.16.84zm-2.23 1.37c-.72 0-1.3.58-1.3 1.3 0 .72.58 1.3 1.3 1.3.72 0 1.3-.58 1.3-1.3 0-.72-.58-1.3-1.3-1.3zM56.77 9.45c-.09-.55-.61-.92-1.16-.83h-.01c-.55.09-.92.61-.83 1.17.09.55.62.92 1.17.83.56-.1.93-.62.83-1.17zm.8 25.68c.56.01 1.02-.43 1.03-.99.01-.56-.43-1.02-.99-1.03-.56-.01-1.02.43-1.03.99-.01.56.43 1.02.99 1.03zM78.52 2.07h.01v-.54h-.01c-.28 0-.5-.22-.5-.5v-.02h-.55v.02c0 .28-.23.5-.5.5-.28 0-.5-.23-.5-.5v-.02h-.55v.02c0 .28-.23.5-.5.5-.28 0-.5-.23-.5-.5v-.02h-.55v.02c0 .28-.23.5-.5.5-.28 0-.5-.23-.5-.5v-.02h-.55v.02c0 .28-.23.5-.5.5s-.5-.22-.5-.5v-.02h-.55v.02c0 .21-.13.39-.32.47-.06.02-.12.04-.18.04-.26 0-.48-.2-.5-.46v-.04-.02h-.55v.02c0 .28-.23.5-.5.5-.28 0-.5-.23-.5-.5v-.02h-.55v.02c0 .28-.23.5-.5.5-.28 0-.5-.23-.5-.5v-.02h-.55v.02c0 .22-.14.4-.34.47-.05.02-.11.03-.16.03-.19 0-.36-.11-.44-.27a.465.465 0 01-.06-.23v-.02h-.55v.03c0 .28-.23.5-.51.5s-.5-.23-.5-.51v-.02h-.55v.02c0 .28-.23.5-.5.5-.28 0-.5-.23-.5-.5v-.02H62v.02c0 .28-.23.5-.5.5-.28 0-.5-.23-.5-.5v-.02h-.55v.02c0 .28-.23.5-.5.5-.28 0-.5-.23-.5-.5v-.02h-.55v.02c0 .28-.23.5-.5.5-.28 0-.5-.23-.5-.5v-.02h-.55v.02c0 .28-.22.5-.5.5h-.01v.54c.27 0 .5.23.5.5 0 .28-.22.5-.5.5v.54c.27 0 .5.23.5.5s-.22.5-.5.5v.51c-.18.23-.28.51-.28.81 0 .53.31.98.76 1.18 0 .01.01.03.01.05v.04c0 .28-.22.5-.5.5v.54c.26 0 .48.22.49.48v.05c-.09.11-.16.23-.2.37l-.09.06c-.06.03-.13.05-.21.05v.54c.09 0 .18.03.26.08a.495.495 0 01-.26.92v.54c.27.01.49.23.5.5 0 .28-.22.5-.5.5v.54c.23 0 .42.16.47.37a.502.502 0 01-.47.64v.54c.27 0 .5.23.5.5 0 .28-.22.5-.5.5v.54c.27 0 .5.23.5.5v.01c-.01.27-.22.48-.49.49v.54a.495.495 0 01.49.5c0 .03 0 .07-.01.1a.5.5 0 01-.48.4v.54c.27 0 .5.23.5.5s-.22.5-.5.5v.54c.27 0 .5.23.5.5s-.22.5-.5.5v.54c.17 0 .32.09.41.22.07.08.11.18.11.3h.54c0-.28.22-.5.5-.5.27 0 .5.22.5.5h.54c.01-.27.23-.49.5-.49s.49.22.5.49h.54a.513.513 0 01.51-.49c.27 0 .49.22.5.49h.54c.01-.23.17-.42.38-.47.04-.01.07-.01.12-.01.27 0 .49.22.5.49h.54c.01-.27.23-.49.5-.49s.49.22.5.49h.54c.01-.27.23-.49.5-.49h.04c.25.02.45.23.47.48h.54a.506.506 0 01.61-.48c.22.05.38.24.39.47h.54c.01-.25.21-.46.46-.48.1.46.5.8.97.81.44.01.82-.27.97-.66.09.09.15.21.15.34h.54c.01-.27.23-.49.5-.49.04 0 .08.01.12.01.01 0 .02.01.03.01.19.48.66.83 1.21.83.35 0 .67-.14.9-.37h.34c.01-.27.23-.49.5-.49s.49.22.5.49h.54c0-.28.22-.5.5-.5.27 0 .5.22.5.5H78c0-.03.01-.07.01-.1.04-.24.25-.42.5-.42h.01v-.54h-.01c-.28 0-.5-.23-.5-.5 0-.28.23-.5.5-.5h.01v-.48h-.01c-.28 0-.5-.23-.5-.5 0-.28.23-.5.5-.5h.01v-.54h-.01c-.28 0-.5-.23-.5-.5 0-.28.23-.5.5-.5h.01V17h-.01c-.28 0-.5-.23-.5-.5 0-.28.23-.5.5-.5h.01v-.54h-.01c-.28 0-.5-.23-.5-.5 0-.28.23-.5.5-.5h.01v-.56h-.01c-.06 0-.11-.01-.16-.03a.496.496 0 01-.34-.47c0-.08.02-.16.06-.23.08-.16.25-.28.45-.28h.01v-.54h-.01c-.28 0-.5-.23-.5-.5 0-.28.23-.5.5-.5h.01v-.55h-.01c-.28 0-.5-.23-.5-.5 0-.28.23-.5.5-.5h.01v-.55h-.03a.495.495 0 01-.49-.51c0-.07.02-.14.04-.2.08-.18.25-.3.46-.3h.01V7.7h-.01c-.28 0-.5-.23-.5-.5 0-.28.23-.5.5-.5h.01v-.55h-.01c-.28 0-.5-.23-.5-.5s.23-.5.5-.5h.01V4.6h-.01c-.28 0-.5-.23-.5-.5 0-.28.23-.5.5-.5h.01v-.55h-.01c-.28 0-.5-.22-.5-.5.01-.26.24-.48.51-.48z" fill="#fff"/><path d="M68.12 9.66c.51-.51 1.33-.51 1.84 0s.51 1.33 0 1.84-1.33.51-1.84 0-.51-1.33 0-1.84zM45.72 33.9c.51.51 1.33.51 1.84 0s.51-1.33 0-1.84-1.33-.51-1.84 0c-.5.51-.5 1.33 0 1.84zm22.4-1.84c-.51.51-.51 1.33 0 1.84s1.33.51 1.84 0 .51-1.33 0-1.84-1.33-.51-1.84 0zm-22.4-22.4c-.51.51-.51 1.33 0 1.84s1.33.51 1.84 0 .51-1.33 0-1.84c-.51-.5-1.33-.5-1.84 0zm26.66 12.12c0 .72.58 1.3 1.3 1.3.72 0 1.3-.58 1.3-1.3 0-.72-.58-1.3-1.3-1.3-.72 0-1.3.59-1.3 1.3zm-31.68 0c0 .72.58 1.3 1.3 1.3.72 0 1.3-.58 1.3-1.3 0-.72-.58-1.3-1.3-1.3-.72 0-1.3.58-1.3 1.3zm17.14 14.54c-.72 0-1.3.58-1.3 1.3 0 .72.58 1.3 1.3 1.3.72 0 1.3-.58 1.3-1.3 0-.72-.58-1.3-1.3-1.3zm0-31.68c-.72 0-1.3.58-1.3 1.3 0 .72.58 1.3 1.3 1.3.72 0 1.3-.58 1.3-1.3 0-.72-.58-1.3-1.3-1.3zm5.42 3.65c.66.27 1.42-.06 1.69-.72a1.3 1.3 0 00-.72-1.69 1.3 1.3 0 00-1.69.72c-.26.67.06 1.42.72 1.69zM51.45 37.68a1.3 1.3 0 001.69-.72 1.3 1.3 0 00-.72-1.69 1.3 1.3 0 00-1.69.72c-.27.66.05 1.42.72 1.69zM71.33 27.2a1.3 1.3 0 00.72 1.69 1.3 1.3 0 001.69-.72 1.3 1.3 0 00-.72-1.69c-.66-.26-1.42.06-1.69.72zM41.94 15.39a1.3 1.3 0 00.72 1.69 1.3 1.3 0 001.69-.72 1.3 1.3 0 00-.72-1.69c-.67-.27-1.42.05-1.69.72zm29.24.61c.29.66 1.05.96 1.71.68.66-.29.96-1.05.68-1.71-.29-.66-1.05-.96-1.71-.68-.66.29-.96 1.05-.68 1.71zM42.12 28.6c.29.66 1.05.96 1.71.68.66-.29.96-1.05.68-1.71-.28-.66-1.04-.96-1.7-.68h-.01c-.66.28-.97 1.04-.68 1.71 0 0 0-.01 0 0zm21.5 6.52a1.296 1.296 0 101.7.68v-.01c-.28-.65-1.04-.95-1.7-.67zM51.03 6.05c-.66.28-.96 1.05-.68 1.7.29.66 1.05.96 1.71.68.66-.29.96-1.05.68-1.71-.29-.65-1.06-.95-1.71-.67zm13.37 6.49c.45.32 1.09.22 1.41-.24a1.01 1.01 0 10-1.65-1.16c-.31.46-.21 1.08.24 1.4zM50.11 32.67c.45.32 1.09.22 1.41-.24.32-.46.22-1.09-.24-1.41a1.012 1.012 0 00-1.17 1.65zm16.97-4.33a1.01 1.01 0 101.65 1.17c.32-.46.22-1.09-.24-1.41a1.01 1.01 0 00-1.41.24zM46.96 14.05a1.01 1.01 0 101.65 1.17c.32-.45.22-1.09-.24-1.41a.997.997 0 00-1.4.23l-.01.01zm22.05 5.84a1.008 1.008 0 101.99-.33 1.008 1.008 0 00-1.99.33zm-24.33 4.12a1.008 1.008 0 101.99-.33 1.008 1.008 0 00-1.99.33zm15.05 8.94a1.008 1.008 0 10.33 1.99h.01c.55-.09.92-.61.83-1.16v-.01c-.09-.54-.62-.91-1.17-.82zM55.61 8.62c-.55.09-.92.61-.83 1.17.09.55.62.92 1.17.83.55-.09.92-.61.83-1.16a.998.998 0 00-1.15-.83c-.01-.01-.02-.01-.02-.01zm4.64 2.09c.55.12 1.08-.23 1.2-.78.12-.55-.23-1.08-.78-1.2-.54-.12-1.08.23-1.2.78-.11.54.23 1.08.78 1.2zM55 34.83c.54.13 1.09-.21 1.21-.75.13-.54-.21-1.09-.75-1.21-.01 0-.02 0-.03-.01a1.008 1.008 0 00-.43 1.97zm13.91-10.64c-.12.55.23 1.08.78 1.2.55.12 1.08-.23 1.2-.78.12-.55-.23-1.08-.78-1.2a1.02 1.02 0 00-1.2.78zm-24.12-5.25c-.12.55.23 1.08.78 1.2.55.12 1.08-.23 1.2-.78.12-.55-.23-1.08-.78-1.2-.54-.11-1.08.24-1.2.78zm22.54-3.34c.31.47.93.6 1.4.29.47-.31.6-.93.3-1.4-.3-.47-.93-.6-1.4-.3-.47.32-.6.94-.3 1.41zM46.65 29.06c.31.47.93.6 1.4.29.47-.31.6-.93.29-1.4-.3-.47-.93-.6-1.4-.3-.46.32-.59.95-.29 1.41zm17.37 2.22c-.47.31-.6.93-.3 1.4.31.47.93.6 1.4.29.47-.31.6-.93.3-1.4-.3-.47-.93-.6-1.4-.29zM50.56 10.59c-.47.31-.6.93-.3 1.4.31.47.93.6 1.4.29.47-.31.6-.93.3-1.4-.31-.46-.93-.59-1.4-.29zm15.38-.88c.6.4 1.4.24 1.8-.35.4-.6.24-1.4-.35-1.8a1.3 1.3 0 00-1.8.35c-.4.59-.24 1.4.35 1.8zm-17.65 26.3c.6.4 1.4.24 1.8-.35.4-.6.24-1.4-.35-1.8a1.3 1.3 0 00-1.8.35c-.41.6-.25 1.4.35 1.8zm21.62-6.13c-.4.6-.24 1.4.35 1.8.6.4 1.4.24 1.8-.35.4-.6.24-1.4-.35-1.8a1.3 1.3 0 00-1.8.35zm-26.3-17.65c-.4.6-.24 1.4.35 1.8.6.4 1.4.24 1.8-.35.4-.6.24-1.4-.35-1.8-.59-.4-1.4-.25-1.8.35zm28.5 6.74c.14.7.82 1.16 1.52 1.03.7-.14 1.16-.82 1.03-1.52a1.31 1.31 0 00-1.52-1.03c-.71.14-1.17.82-1.03 1.52zm-31.08 6.12c.14.7.82 1.16 1.52 1.03.7-.14 1.16-.82 1.03-1.52a1.31 1.31 0 00-1.52-1.03c-.71.13-1.17.81-1.03 1.52zm19.62 10.96c-.7.14-1.16.82-1.03 1.52.14.7.82 1.16 1.52 1.03.7-.14 1.16-.82 1.03-1.52-.14-.71-.82-1.17-1.52-1.03zM54.53 4.97c-.7.14-1.16.82-1.03 1.52.14.7.82 1.16 1.52 1.03.7-.14 1.16-.82 1.03-1.52-.13-.71-.81-1.17-1.52-1.03zm6.03 2.53c.7.13 1.39-.33 1.52-1.03.13-.7-.33-1.39-1.03-1.52-.7-.13-1.39.33-1.52 1.03-.14.7.32 1.38 1.03 1.52zm-5.92 31.12c.7.13 1.39-.33 1.52-1.03.13-.7-.33-1.39-1.03-1.52-.7-.13-1.39.33-1.52 1.03-.14.71.32 1.38 1.03 1.52zM72.12 24.5c-.13.7.33 1.39 1.03 1.52.7.13 1.39-.33 1.52-1.03.13-.7-.33-1.39-1.03-1.52-.7-.14-1.38.32-1.52 1.03zM41 18.58c-.13.7.33 1.39 1.03 1.52.7.13 1.39-.33 1.52-1.03.13-.7-.33-1.39-1.03-1.52-.7-.14-1.38.32-1.52 1.03zm28.81-5.04c.41.59 1.21.74 1.81.34.59-.4.74-1.21.34-1.8v-.01c-.4-.59-1.21-.74-1.8-.34h-.01c-.59.4-.74 1.21-.34 1.81zM43.73 31.5c.4.59 1.21.74 1.8.34h.01c.59-.41.74-1.22.33-1.81-.4-.59-1.21-.74-1.8-.34h-.01c-.59.41-.74 1.22-.33 1.81zm22.36 2.26c-.59.4-.74 1.21-.34 1.8v.01a1.299 1.299 0 002.14-1.47c-.4-.6-1.21-.75-1.8-.34zM48.12 7.67c-.59.4-.74 1.21-.34 1.8v.01c.41.59 1.22.73 1.82.33.59-.41.73-1.22.33-1.81-.41-.59-1.22-.74-1.81-.33zm14.37 3.79a1.014 1.014 0 00.83-1.85 1.01 1.01 0 00-1.34.5v.01c-.22.51 0 1.11.51 1.34zm-10.13 22.5a1.014 1.014 0 10.83-1.852 1.014 1.014 0 00-.83 1.852c0-.01-.01-.01 0 0zm15.81-7.53c-.23.51-.01 1.11.5 1.34h.01a1.014 1.014 0 00.83-1.85c-.51-.22-1.11 0-1.34.51zM45.67 16.3c-.23.51-.01 1.11.5 1.34h.01a1.014 1.014 0 10-.51-1.34zm22.76 1.47a1.01 1.01 0 10.59-1.3c-.52.19-.79.77-.59 1.29v.01zm-23.07 8.74a1.01 1.01 0 10.59-1.3c-.53.19-.79.78-.59 1.3zm16.49 5.86a1.01 1.01 0 101.3.59 1.01 1.01 0 00-1.3-.59c.01 0 .01 0 0 0zM53.11 9.3a1.01 1.01 0 10.711 1.89 1.01 1.01 0 00-.711-1.89s.01 0 0 0zm4.96 1.16c.56.01 1.02-.43 1.03-.99.01-.56-.43-1.02-.99-1.03-.56-.01-1.02.43-1.03.99-.02.55.43 1.02.99 1.03zm-.5 24.67c.56.01 1.02-.43 1.03-.99.01-.56-.43-1.02-.99-1.03-.56-.01-1.02.43-1.03.99-.01.56.43 1.02.99 1.03zm11.59-13.12c-.01.56.43 1.02.99 1.03.56.01 1.02-.43 1.03-.99.01-.56-.43-1.02-.99-1.03a1.02 1.02 0 00-1.03.99zm-24.67-.5c-.01.56.43 1.02.99 1.03.56.01 1.02-.43 1.03-.99.01-.56-.43-1.02-.99-1.03-.55-.01-1.02.43-1.03.99zm21.47-7.62a1.01 1.01 0 001.45-1.41 1.011 1.011 0 10-1.45 1.41zm-17.69 17.2a1.011 1.011 0 101.45-1.41 1.011 1.011 0 00-1.45 1.41zm17.47-1.19a1.011 1.011 0 101.43.02c-.39-.4-1.03-.4-1.43-.02zm-17.2-17.69a1.011 1.011 0 101.41 1.45 1.011 1.011 0 00-1.41-1.45z" fill="url(#paint0_linear)"/><path d="M68.12 9.66c.51-.51 1.33-.51 1.84 0s.51 1.33 0 1.84-1.33.51-1.84 0-.51-1.33 0-1.84zM45.72 33.9c.51.51 1.33.51 1.84 0s.51-1.33 0-1.84-1.33-.51-1.84 0c-.5.51-.5 1.33 0 1.84zm22.4-1.84c-.51.51-.51 1.33 0 1.84s1.33.51 1.84 0 .51-1.33 0-1.84-1.33-.51-1.84 0zm-22.4-22.4c-.51.51-.51 1.33 0 1.84s1.33.51 1.84 0 .51-1.33 0-1.84c-.51-.5-1.33-.5-1.84 0zm26.66 12.12c0 .72.58 1.3 1.3 1.3.72 0 1.3-.58 1.3-1.3 0-.72-.58-1.3-1.3-1.3-.72 0-1.3.59-1.3 1.3zm-31.68 0c0 .72.58 1.3 1.3 1.3.72 0 1.3-.58 1.3-1.3 0-.72-.58-1.3-1.3-1.3-.72 0-1.3.58-1.3 1.3zm17.14 14.54c-.72 0-1.3.58-1.3 1.3 0 .72.58 1.3 1.3 1.3.72 0 1.3-.58 1.3-1.3 0-.72-.58-1.3-1.3-1.3zm0-31.68c-.72 0-1.3.58-1.3 1.3 0 .72.58 1.3 1.3 1.3.72 0 1.3-.58 1.3-1.3 0-.72-.58-1.3-1.3-1.3zm5.42 3.65c.66.27 1.42-.06 1.69-.72a1.3 1.3 0 00-.72-1.69 1.3 1.3 0 00-1.69.72c-.26.67.06 1.42.72 1.69zM51.45 37.68a1.3 1.3 0 001.69-.72 1.3 1.3 0 00-.72-1.69 1.3 1.3 0 00-1.69.72c-.27.66.05 1.42.72 1.69zM71.33 27.2a1.3 1.3 0 00.72 1.69 1.3 1.3 0 001.69-.72 1.3 1.3 0 00-.72-1.69c-.66-.26-1.42.06-1.69.72zM41.94 15.39a1.3 1.3 0 00.72 1.69 1.3 1.3 0 001.69-.72 1.3 1.3 0 00-.72-1.69c-.67-.27-1.42.05-1.69.72zm29.24.61c.29.66 1.05.96 1.71.68.66-.29.96-1.05.68-1.71-.29-.66-1.05-.96-1.71-.68-.66.29-.96 1.05-.68 1.71zM42.12 28.6c.29.66 1.05.96 1.71.68.66-.29.96-1.05.68-1.71-.28-.66-1.04-.96-1.7-.68h-.01c-.66.28-.97 1.04-.68 1.71 0 0 0-.01 0 0zm21.5 6.52a1.296 1.296 0 101.7.68v-.01c-.28-.65-1.04-.95-1.7-.67zM51.03 6.05c-.66.28-.96 1.05-.68 1.7.29.66 1.05.96 1.71.68.66-.29.96-1.05.68-1.71-.29-.65-1.06-.95-1.71-.67zm13.37 6.49c.45.32 1.09.22 1.41-.24a1.01 1.01 0 10-1.65-1.16c-.31.46-.21 1.08.24 1.4zM50.11 32.67c.45.32 1.09.22 1.41-.24.32-.46.22-1.09-.24-1.41a1.012 1.012 0 00-1.17 1.65zm16.97-4.33a1.01 1.01 0 101.65 1.17c.32-.46.22-1.09-.24-1.41a1.01 1.01 0 00-1.41.24zM46.96 14.05a1.01 1.01 0 101.65 1.17c.32-.45.22-1.09-.24-1.41a.997.997 0 00-1.4.23l-.01.01zm22.05 5.84a1.008 1.008 0 101.99-.33 1.008 1.008 0 00-1.99.33zm-24.33 4.12a1.008 1.008 0 101.99-.33 1.008 1.008 0 00-1.99.33zm15.05 8.94a1.008 1.008 0 10.33 1.99h.01c.55-.09.92-.61.83-1.16v-.01c-.09-.54-.62-.91-1.17-.82zM55.61 8.62c-.55.09-.92.61-.83 1.17.09.55.62.92 1.17.83.55-.09.92-.61.83-1.16a.998.998 0 00-1.15-.83c-.01-.01-.02-.01-.02-.01zm4.64 2.09c.55.12 1.08-.23 1.2-.78.12-.55-.23-1.08-.78-1.2-.54-.12-1.08.23-1.2.78-.11.54.23 1.08.78 1.2zM55 34.83c.54.13 1.09-.21 1.21-.75.13-.54-.21-1.09-.75-1.21-.01 0-.02 0-.03-.01a1.008 1.008 0 00-.43 1.97zm13.91-10.64c-.12.55.23 1.08.78 1.2.55.12 1.08-.23 1.2-.78.12-.55-.23-1.08-.78-1.2a1.02 1.02 0 00-1.2.78zm-24.12-5.25c-.12.55.23 1.08.78 1.2.55.12 1.08-.23 1.2-.78.12-.55-.23-1.08-.78-1.2-.54-.11-1.08.24-1.2.78zm22.54-3.34c.31.47.93.6 1.4.29.47-.31.6-.93.3-1.4-.3-.47-.93-.6-1.4-.3-.47.32-.6.94-.3 1.41zM46.65 29.06c.31.47.93.6 1.4.29.47-.31.6-.93.29-1.4-.3-.47-.93-.6-1.4-.3-.46.32-.59.95-.29 1.41zm17.37 2.22c-.47.31-.6.93-.3 1.4.31.47.93.6 1.4.29.47-.31.6-.93.3-1.4-.3-.47-.93-.6-1.4-.29zM50.56 10.59c-.47.31-.6.93-.3 1.4.31.47.93.6 1.4.29.47-.31.6-.93.3-1.4-.31-.46-.93-.59-1.4-.29zm15.38-.88c.6.4 1.4.24 1.8-.35.4-.6.24-1.4-.35-1.8a1.3 1.3 0 00-1.8.35c-.4.59-.24 1.4.35 1.8zm-17.65 26.3c.6.4 1.4.24 1.8-.35.4-.6.24-1.4-.35-1.8a1.3 1.3 0 00-1.8.35c-.41.6-.25 1.4.35 1.8zm21.62-6.13c-.4.6-.24 1.4.35 1.8.6.4 1.4.24 1.8-.35.4-.6.24-1.4-.35-1.8a1.3 1.3 0 00-1.8.35zm-26.3-17.65c-.4.6-.24 1.4.35 1.8.6.4 1.4.24 1.8-.35.4-.6.24-1.4-.35-1.8-.59-.4-1.4-.25-1.8.35zm28.5 6.74c.14.7.82 1.16 1.52 1.03.7-.14 1.16-.82 1.03-1.52a1.31 1.31 0 00-1.52-1.03c-.71.14-1.17.82-1.03 1.52zm-31.08 6.12c.14.7.82 1.16 1.52 1.03.7-.14 1.16-.82 1.03-1.52a1.31 1.31 0 00-1.52-1.03c-.71.13-1.17.81-1.03 1.52zm19.62 10.96c-.7.14-1.16.82-1.03 1.52.14.7.82 1.16 1.52 1.03.7-.14 1.16-.82 1.03-1.52-.14-.71-.82-1.17-1.52-1.03zM54.53 4.97c-.7.14-1.16.82-1.03 1.52.14.7.82 1.16 1.52 1.03.7-.14 1.16-.82 1.03-1.52-.13-.71-.81-1.17-1.52-1.03zm6.03 2.53c.7.13 1.39-.33 1.52-1.03.13-.7-.33-1.39-1.03-1.52-.7-.13-1.39.33-1.52 1.03-.14.7.32 1.38 1.03 1.52zm-5.92 31.12c.7.13 1.39-.33 1.52-1.03.13-.7-.33-1.39-1.03-1.52-.7-.13-1.39.33-1.52 1.03-.14.71.32 1.38 1.03 1.52zM72.12 24.5c-.13.7.33 1.39 1.03 1.52.7.13 1.39-.33 1.52-1.03.13-.7-.33-1.39-1.03-1.52-.7-.14-1.38.32-1.52 1.03zM41 18.58c-.13.7.33 1.39 1.03 1.52.7.13 1.39-.33 1.52-1.03.13-.7-.33-1.39-1.03-1.52-.7-.14-1.38.32-1.52 1.03zm28.81-5.04c.41.59 1.21.74 1.81.34.59-.4.74-1.21.34-1.8v-.01c-.4-.59-1.21-.74-1.8-.34h-.01c-.59.4-.74 1.21-.34 1.81zM43.73 31.5c.4.59 1.21.74 1.8.34h.01c.59-.41.74-1.22.33-1.81-.4-.59-1.21-.74-1.8-.34h-.01c-.59.41-.74 1.22-.33 1.81zm22.36 2.26c-.59.4-.74 1.21-.34 1.8v.01a1.299 1.299 0 002.14-1.47c-.4-.6-1.21-.75-1.8-.34zM48.12 7.67c-.59.4-.74 1.21-.34 1.8v.01c.41.59 1.22.73 1.82.33.59-.41.73-1.22.33-1.81-.41-.59-1.22-.74-1.81-.33zm14.37 3.79a1.014 1.014 0 00.83-1.85 1.01 1.01 0 00-1.34.5v.01c-.22.51 0 1.11.51 1.34zm-10.13 22.5a1.014 1.014 0 10.83-1.852 1.014 1.014 0 00-.83 1.852c0-.01-.01-.01 0 0zm15.81-7.53c-.23.51-.01 1.11.5 1.34h.01a1.014 1.014 0 00.83-1.85c-.51-.22-1.11 0-1.34.51zM45.67 16.3c-.23.51-.01 1.11.5 1.34h.01a1.014 1.014 0 10-.51-1.34zm22.76 1.47a1.01 1.01 0 10.59-1.3c-.52.19-.79.77-.59 1.29v.01zm-23.07 8.74a1.01 1.01 0 10.59-1.3c-.53.19-.79.78-.59 1.3zm16.49 5.86a1.01 1.01 0 101.3.59 1.01 1.01 0 00-1.3-.59c.01 0 .01 0 0 0zM53.11 9.3a1.01 1.01 0 10.711 1.89 1.01 1.01 0 00-.711-1.89s.01 0 0 0zm4.96 1.16c.56.01 1.02-.43 1.03-.99.01-.56-.43-1.02-.99-1.03-.56-.01-1.02.43-1.03.99-.02.55.43 1.02.99 1.03zm-.5 24.67c.56.01 1.02-.43 1.03-.99.01-.56-.43-1.02-.99-1.03-.56-.01-1.02.43-1.03.99-.01.56.43 1.02.99 1.03zm11.59-13.12c-.01.56.43 1.02.99 1.03.56.01 1.02-.43 1.03-.99.01-.56-.43-1.02-.99-1.03a1.02 1.02 0 00-1.03.99zm-24.67-.5c-.01.56.43 1.02.99 1.03.56.01 1.02-.43 1.03-.99.01-.56-.43-1.02-.99-1.03-.55-.01-1.02.43-1.03.99zm21.47-7.62a1.01 1.01 0 001.45-1.41 1.011 1.011 0 10-1.45 1.41zm-17.69 17.2a1.011 1.011 0 101.45-1.41 1.011 1.011 0 00-1.45 1.41zm17.47-1.19a1.011 1.011 0 101.43.02c-.39-.4-1.03-.4-1.43-.02zm-17.2-17.69a1.011 1.011 0 101.41 1.45 1.011 1.011 0 00-1.41-1.45z" fill="url(#paint1_linear)"/><path d="M62.34 12.68a9.983 9.983 0 00-4.74-1.04c-1.84.06-3.62.62-5.16 1.64-.28-.39-.6-.75-.97-1.08a6.585 6.585 0 00-4.79-1.68c-1.77.1-3.39.88-4.58 2.19-.23.26-.44.54-.63.82-1.58-.92-3.43-1.41-5.38-1.35-1.7.05-3.32.53-4.72 1.36a6.634 6.634 0 00-5.94-3.05 6.64 6.64 0 00-6.03 4.85 6.432 6.432 0 00-3.05.49 4.016 4.016 0 00-3.47-.76c-.93.23-1.74.77-2.3 1.53-.59-.04-1.18 0-1.77.15-.47.12-.92.29-1.34.52-.7-.29-1.47-.35-2.2-.17-.56.14-1.06.4-1.47.75-.11.01-.22.04-.34.06-1.73.42-2.8 2.17-2.37 3.91a5.178 5.178 0 002.33 3.19c1.3.8 2.89.97 4.34.48.93.67 2.14.96 3.34.66.88-.21 1.67-.72 2.23-1.43.48.04.97.02 1.45-.06.26.39.59.75.96 1.05 1.03.84 2.32 1.23 3.65 1.09 1.32-.13 2.51-.78 3.35-1.8l.09-.12c1.06.41 2.22.6 3.4.53.83-.04 1.63-.21 2.38-.49 1.21 3.24 4.38 5.52 8.04 5.4 2.21-.07 4.27-1 5.79-2.61.76-.81 1.35-1.76 1.74-2.8 1.45.54 3.02.66 4.53.35a9.74 9.74 0 002.16 3.29 9.865 9.865 0 007 2.96c5.47.04 9.96-4.39 9.99-9.86.04-3.92-2.23-7.34-5.52-8.97zM19.07 23.57c-.46.05-.92-.09-1.27-.38l-.04-.04c.19-.19.38-.38.54-.6.17.16.4.26.65.26s.47-.1.63-.25c.16.19.33.37.51.54-.28.27-.64.43-1.02.47zm8.91-6.71a2.232 2.232 0 00-4.45.24c0 .04 0 .09.01.14a7.25 7.25 0 00-1.06-.86 3.422 3.422 0 013.13-2.67c1.42-.08 2.68.73 3.25 1.94-.32.38-.61.78-.88 1.21zm12.11 8.64c-.92.98-2.19 1.55-3.53 1.59a5.092 5.092 0 01-5.1-3.95c.76-.72 1.38-1.58 1.83-2.56l-.02.04a3.424 3.424 0 013.02-1.98c1.4-.04 2.69.72 3.21 1.9.44 1 1.07 1.87 1.84 2.6-.19.89-.62 1.7-1.25 2.36zm9.08-8.64a2.099 2.099 0 00-2.09-1.85c-1.14 0-2.07.92-2.1 2.05-.29-.51-.62-.98-.99-1.42.14-.28.31-.54.53-.78.6-.67 1.44-1.08 2.34-1.13 1.32-.07 2.55.62 3.18 1.78-.33.43-.61.88-.87 1.35zm8.72 12.9a8.172 8.172 0 01-5.77-2.43 8.04 8.04 0 01-1.73-2.61c.26-.12.51-.25.76-.39.34.83.82 1.6 1.46 2.27a7.261 7.261 0 005.11 2.3c4.04.12 7.43-3.06 7.55-7.1v-.23c0-.09 0-.17-.01-.25l.85-.03c0 .11.01.23.01.34-.02 4.52-3.72 8.17-8.23 8.13zm-21.46-9.75a2.02 2.02 0 102.02 2.02c0-1.11-.91-2.02-2.02-2.02z" fill="#fff"/><path d="M50.97 14.52a9.865 9.865 0 00-2.96 7c-.02 2.65 1 5.15 2.86 7.04a9.865 9.865 0 007 2.96c5.47.04 9.96-4.39 9.99-9.86.03-5.47-4.39-9.96-9.86-9.99-2.64-.03-5.14.98-7.03 2.85zm6.92 15.24a8.172 8.172 0 01-5.77-2.43 8.125 8.125 0 01-2.36-5.8c.01-2.18.88-4.23 2.43-5.77a8.125 8.125 0 015.8-2.36c4.51.03 8.16 3.72 8.13 8.24-.02 4.51-3.72 8.16-8.23 8.12z" fill="#FFC10E"/><path d="M57.95 28.19a6.61 6.61 0 100-13.22 6.61 6.61 0 000 13.22z" fill="#231F20"/><path d="M52.92 16.24a7.261 7.261 0 00-2.3 5.11 7.22 7.22 0 001.99 5.24 7.261 7.261 0 005.11 2.3c4.04.12 7.43-3.06 7.55-7.1v-.23c0-1.87-.7-3.65-1.99-5.02a7.261 7.261 0 00-5.11-2.3 7.41 7.41 0 00-5.25 2zm4.85 11.23a5.85 5.85 0 01-4.11-1.85 5.86 5.86 0 01-1.6-4.21c.05-1.57.7-3.03 1.85-4.11a5.86 5.86 0 014.21-1.6c1.57.05 3.03.7 4.11 1.85a5.877 5.877 0 011.6 4.21c-.1 3.25-2.82 5.81-6.06 5.71z" fill="#FFC10E"/><path d="M67.81 21.25a9.812 9.812 0 00-3.12-6.91 9.83 9.83 0 00-7.09-2.69c-3.9.12-7.37 2.52-8.86 6.12l-.01.03-.02.06c-.26.64-.87 1.08-1.56 1.12-.74.04-1.43-.38-1.73-1.05-1.6-3.61-5.26-5.86-9.31-5.74-3.75.12-7.07 2.3-8.67 5.69v.01l-.01.01a1.781 1.781 0 01-3.09.27c-1.38-1.99-3.72-3.08-6.1-2.83-1.8.18-3.42 1.1-4.51 2.5a5.64 5.64 0 00-4.91-1.1 5.62 5.62 0 00-2.78 1.63c-.73-.48-1.64-.69-2.56-.46-1.73.42-2.8 2.17-2.37 3.91a5.178 5.178 0 002.33 3.19c1.18.72 2.56.93 3.91.6 1.23-.3 2.3-1.05 3.01-2.08a5.65 5.65 0 004.84 1.05 5.7 5.7 0 003.57-2.68l.01-.03.01-.02c.02-.04.06-.06.1-.07.07-.01.13.07.14.08a8.178 8.178 0 007.22 3.54 8.256 8.256 0 007.06-4.81l-.02.04a3.424 3.424 0 013.02-1.98c1.4-.04 2.69.72 3.21 1.9a8.272 8.272 0 007.98 4.88c3.14-.17 5.93-2.15 7.15-5.04l.01-.03.03-.08a3.446 3.446 0 015.57-1.23 3.4 3.4 0 011.08 2.41l6.47-.21zM13.13 18.7l.02-.04.01-.01c-.01.01-.02.03-.03.05zm-3.57 4.08c0-.01 0-.01 0 0l-.03-.04c.01.01.02.02.03.04z" fill="url(#paint2_linear)"/><path d="M25.44 10.48c-3.65.2-6.46 3.33-6.26 6.98.07 1.23.47 2.41 1.17 3.41.16.23.25.5.28.79.05.46-.09.92-.38 1.27-.29.36-.71.59-1.17.63-.46.05-.92-.09-1.27-.38-.36-.29-.59-.71-.63-1.17-.04-.35.04-.71.21-1.02l-.01.03c.52-.91.67-1.97.42-2.99a3.984 3.984 0 00-1.83-2.5c-.92-.56-2.02-.73-3.07-.47a4.047 4.047 0 00-2.11 6.57l.01.01.01.01c.09.1.15.22.18.35.05.21.02.44-.1.62-.24.39-.75.51-1.14.27a.809.809 0 01-.33-1.01c.29-.69.35-1.45.17-2.19-.22-.92-.8-1.7-1.6-2.19a3.5 3.5 0 00-2.68-.41c-1.9.46-3.07 2.39-2.61 4.29.21.87 1.08 1.4 1.95 1.19.87-.21 1.4-1.08 1.19-1.95-.04-.17.06-.34.23-.38.1-.03.19.01.24.04.05.03.12.09.14.19.01.07.01.13-.01.19-.33.79-.4 1.67-.19 2.5a4.063 4.063 0 004.9 2.98c1.05-.25 1.95-.91 2.5-1.83.23-.37.38-.77.48-1.18.26 1.01.83 1.9 1.66 2.58 1.03.84 2.32 1.23 3.65 1.09 1.32-.13 2.51-.78 3.35-1.8a4.912 4.912 0 001.09-3.65c-.08-.82-.37-1.61-.83-2.28v-.01l-.05-.03c-.36-.51-.56-1.12-.6-1.75a3.407 3.407 0 013.21-3.58 3.407 3.407 0 013.28 4.81 8.319 8.319 0 00-.78 3.77c.14 4.57 3.97 8.18 8.54 8.04 2.21-.07 4.27-1 5.79-2.61a8.242 8.242 0 002.26-5.68v-.26c-.03-.88-.19-1.73-.48-2.54l.02-.05-.3-.67c-.17-.38-.27-.78-.29-1.2v-.19c0-.84.31-1.64.87-2.27a3.397 3.397 0 014.8-.27c.67.6 1.08 1.44 1.13 2.34v.19c0 .43-.08.86-.24 1.26l-.02.04c-.39.97-.58 2-.58 3.05 0 .09 4.07-4.59 4.06-4.71-.1-1.77-.88-3.39-2.19-4.58a6.585 6.585 0 00-4.79-1.68c-1.77.1-3.39.88-4.58 2.19a6.543 6.543 0 00-1.68 4.79c.03.55.13 1.08.29 1.6-.01.03-.05.1-.05.1l.32.69c.29.63.45 1.3.48 2v.16c0 1.29-.48 2.52-1.38 3.47-.92.98-2.19 1.55-3.53 1.59-2.79.09-5.13-2.12-5.22-4.91-.03-.81.13-1.58.48-2.3l.01-.02c.44-.97.64-2.05.59-3.11-.2-3.64-3.33-6.45-6.98-6.26zm-12.4 8.72c-.01-.07-.02-.13-.02-.2a.827.827 0 011.63-.2c.05.21.02.42-.09.61l-.01.02c-.27.48-.44 1-.54 1.54a4.26 4.26 0 00-.79-1.43.802.802 0 01-.18-.34z" fill="url(#paint3_linear)"/><path d="M25.76 19.33a2.23 2.23 0 100-4.46 2.23 2.23 0 000 4.46z" fill="#EC1C24"/><path d="M63.59 15.51a8.216 8.216 0 00-5.94-2.25c-2.04.06-3.93.86-5.37 2.19a5.504 5.504 0 00-5.53-3.8c-2.42.13-4.39 1.82-5 4.03-1.52-1.26-3.49-1.95-5.6-1.89-1.89.06-3.65.74-5.04 1.9a5.447 5.447 0 00-1.64-2.68 5.457 5.457 0 00-3.97-1.4 5.516 5.516 0 00-5.21 5.51 4.92 4.92 0 00-3.89.47 2.919 2.919 0 00-5.39.69 4 4 0 00-1.82.02c-.47.12-.91.31-1.31.58a2.4 2.4 0 00-2.34-.7c-.69.17-1.27.63-1.59 1.27-.03.01-.07.01-.1.02-.87.21-1.4 1.08-1.19 1.95.22.92.79 1.7 1.6 2.19.8.49 1.77.64 2.68.41.25-.06.5-.15.73-.27a2.91 2.91 0 003.16 1.27A2.916 2.916 0 0012.94 23c.74.17 1.52.12 2.24-.14.49 1.77 2.2 2.98 4.09 2.78 1.02-.1 1.94-.6 2.59-1.39.32-.4.56-.84.7-1.31 1.07.6 2.31.89 3.59.82 1.13-.06 2.2-.41 3.13-.98.39 3.69 3.57 6.52 7.34 6.4 3.62-.11 6.53-2.9 6.9-6.4 1.16.73 2.51 1.08 3.88 1.01a6.666 6.666 0 005.76-4.07l.01-.03.01-.02a5.082 5.082 0 014.56-3.2c1.35-.04 2.64.45 3.63 1.38.98.93 1.55 2.18 1.59 3.53l3.23-.1c-.06-2.2-.99-4.26-2.6-5.77zM6.4 20.7c-.01.04-.07.15-.22.19-.08.02-.17.01-.24-.04a.302.302 0 01-.14-.19c-.11-.45-.4-.83-.81-1.04.19-.23.46-.41.78-.49.52-.13 1.04.04 1.38.4-.31.34-.57.73-.75 1.17zm4.21 3.39c-.85.21-1.7-.18-2.13-.88.39-.35.7-.79.9-1.27.1-.26.31-.44.57-.5.35-.09.65.07.81.25.36.42.8.75 1.27.99-.17.7-.72 1.24-1.42 1.41zm3.93-4.61l.01-.02a.83.83 0 01-1.34.13l-.01-.01-.01-.01c-.35-.4-.79-.73-1.27-.97.04-.21.12-.42.24-.62.27-.45.7-.76 1.21-.88s1.03-.04 1.48.23c.33.2.59.49.75.83-.41.37-.78.82-1.06 1.32zm6.58 4.17c-.48.59-1.18.97-1.93 1.04-.76.08-1.51-.15-2.11-.63-.51-.42-.86-.99-1-1.64.52-.34.96-.81 1.27-1.35l.01-.03c.28-.5.78-.83 1.35-.89.63-.06 1.26.23 1.63.77.39.56.85 1.05 1.37 1.45-.09.47-.29.91-.59 1.28zm4.86-3.1c-1.18.07-2.31-.49-2.98-1.46a4.964 4.964 0 00-1.71-1.55c-.01-.06-.01-.13-.02-.19-.07-1.21.34-2.37 1.15-3.27.81-.9 1.92-1.43 3.13-1.5 1.21-.07 2.37.34 3.27 1.15.8.71 1.32 1.69 1.46 2.75a8.05 8.05 0 00-1.39 2.08 3.404 3.404 0 01-2.91 1.99zm10.61 7.68c-3.41.1-6.28-2.59-6.38-6.01v-.12a6.69 6.69 0 001.61-2.19l-.01.02a5.052 5.052 0 014.43-2.91c2.05-.06 3.95 1.09 4.74 2.86.38.84.92 1.6 1.61 2.21-.03 3.31-2.67 6.04-6 6.14zm13.63-9.83l-.01.03c0 .01 0 .01-.01.02a3.434 3.434 0 01-2.97 2.13c-1.4.07-2.72-.73-3.29-2.01-.35-.78-.82-1.49-1.37-2.11.31-2.08 2.05-3.74 4.23-3.85 2.28-.12 4.28 1.48 4.69 3.67-.51.63-.94 1.34-1.27 2.12z" fill="#fff"/><path d="M65.31 21.32a7.369 7.369 0 00-2.33-5.17 7.393 7.393 0 00-5.3-2.01c-2.94.09-5.54 1.9-6.64 4.62 0 0-.01.02-.01.03a4.303 4.303 0 01-3.75 2.68c-1.77.1-3.43-.92-4.15-2.54-1.19-2.68-3.92-4.34-6.95-4.25a7.37 7.37 0 00-6.48 4.26 4.28 4.28 0 01-3.67 2.5c-1.5.08-2.9-.61-3.76-1.84a4.118 4.118 0 00-3.79-1.77c-1.33.13-2.51.91-3.16 2.08-.23.4-.62.69-1.07.8-.63.15-1.29-.06-1.71-.55a3.18 3.18 0 00-3.14-1 3.2 3.2 0 00-2.18 1.87c-.15.36-.45.62-.83.71-.31.07-.64.03-.91-.14s-.47-.43-.54-.75a.72.72 0 00-.88-.53.72.72 0 00-.53.88c.17.69.6 1.27 1.2 1.64.61.37 1.32.48 2.01.31.82-.2 1.5-.78 1.83-1.56.21-.51.64-.89 1.18-1.02.62-.15 1.27.05 1.7.53.77.91 1.99 1.3 3.15 1.01.84-.2 1.57-.74 1.99-1.5.42-.77 1.19-1.27 2.04-1.36.95-.1 1.89.34 2.45 1.15a5.71 5.71 0 005.03 2.47c2.13-.11 4.03-1.4 4.91-3.35a5.921 5.921 0 015.2-3.41c2.44-.07 4.63 1.26 5.58 3.39a5.769 5.769 0 005.56 3.4c2.2-.12 4.15-1.51 4.99-3.54l.01-.03a5.945 5.945 0 015.35-3.75c1.59-.05 3.1.53 4.26 1.61a5.906 5.906 0 011.87 4.16" fill="url(#paint4_linear)"/><path d="M13.77 19.92a.93.93 0 100-1.86.93.93 0 000 1.86z" fill="#8BC53F"/><path d="M18.94 22.82a.93.93 0 100-1.86.93.93 0 000 1.86z" fill="#008ED3"/><path d="M78.54 9.26h-.03c.01.01.01.03.02.04l.01-.04zm-.47-.7c.08-.18.25-.3.46-.3h.01v-.54h-.01c-.28 0-.5-.23-.5-.5s.23-.5.5-.5h.01v-.55h-.01c-.28 0-.5-.23-.5-.5s.23-.5.5-.5h.01v-.55h-.01c-.28 0-.5-.23-.5-.5 0-.28.23-.5.5-.5h.01v-.55h-.01c-.28 0-.5-.23-.5-.5 0-.28.23-.5.5-.5h.01v-.54h-.01c-.28 0-.5-.22-.5-.5v-.02h-.55v.02c0 .28-.23.5-.5.5-.28 0-.5-.23-.5-.5v-.02h-.55v.02c0 .28-.23.5-.5.5-.28 0-.5-.23-.5-.5v-.02h-.55v.02c0 .28-.23.5-.5.5-.28 0-.5-.23-.5-.5v-.02h-.55v.02c0 .28-.23.5-.5.5s-.5-.22-.5-.5v-.02h-.55v.02c0 .21-.13.39-.32.47 2.84 1.83 5.26 4.23 7.11 7.06zM70.17 1c.03.02.07.04.1.06v-.04V1h-.1z" fill="#EC1C24"/><path d="M69.73 1v.02c0 .28-.23.5-.5.5-.28 0-.5-.23-.5-.5V1h-.55v.02c0 .28-.23.5-.5.5-.28 0-.5-.23-.5-.5V1h-.55v.02c0 .22-.14.4-.34.47 5.34 2.22 9.55 6.46 11.78 11.69.08-.16.25-.28.45-.28h.01v-.54h-.01c-.28 0-.5-.23-.5-.5 0-.28.23-.5.5-.5h.01v-.55h-.01c-.28 0-.5-.23-.5-.5 0-.28.23-.5.5-.5h.01V9.3c-.01-.01-.01-.03-.02-.04a.495.495 0 01-.49-.51c0-.07.02-.14.04-.2a24.406 24.406 0 00-7.1-7.07c-.06.02-.12.04-.18.04-.26 0-.48-.2-.5-.46-.03-.02-.07-.04-.1-.06h-.45zm-4.1.02V1h-.55v.03c.2.07.4.15.6.22a.593.593 0 01-.05-.23zm12.91 12.89h-.01c-.06 0-.11-.01-.16-.03.06.15.12.31.17.46v-.43z" fill="#FFC10E"/><path d="M66.3 1.5c-.05.02-.11.03-.16.03-.19 0-.36-.11-.44-.27-.2-.07-.4-.15-.6-.22 0 .28-.23.5-.51.5s-.5-.23-.5-.51v-.02h-.55v.02c0 .28-.23.5-.5.5-.28 0-.5-.23-.5-.5v-.02h-.55v.02c0 .28-.23.5-.5.5-.28 0-.5-.23-.5-.5v-.02h-.55v.02c0 .28-.23.5-.5.5-.28 0-.5-.23-.5-.5v-.02h-.54v.02c0 .28-.23.5-.5.5-.28 0-.5-.23-.5-.5v-.02h-.55v.02c0 .28-.22.5-.5.5h-.01v.54c.27 0 .5.23.5.5 0 .28-.22.5-.5.5v.4c.33-.02.67-.03 1.01-.03 10.14 0 18.37 8.22 18.37 18.37 0 .3-.01.6-.02.9h.29c0-.28.22-.5.5-.5.27 0 .5.22.5.5h.54c0-.03.01-.07.01-.1.04-.24.25-.42.5-.42h.01v-.54h-.01c-.28 0-.5-.23-.5-.5 0-.28.23-.5.5-.5h.01v-.55h-.01c-.28 0-.5-.23-.5-.5 0-.28.23-.5.5-.5h.01v-.54h-.01c-.28 0-.5-.23-.5-.5 0-.28.23-.5.5-.5h.01V17h-.01c-.28 0-.5-.23-.5-.5 0-.28.23-.5.5-.5h.01v-.54h-.01c-.28 0-.5-.23-.5-.5 0-.28.23-.5.5-.5h.01v-.12c-.06-.15-.11-.31-.17-.46a.496.496 0 01-.34-.47c0-.08.02-.16.06-.23-2.26-5.22-6.46-9.46-11.8-11.68z" fill="#000"/><path d="M57.83 3.45c-.34 0-.67.01-1.01.03v.14c.27 0 .5.23.5.5s-.22.5-.5.5v.54c.46-.56 1.27-.64 1.83-.18.27.22.44.54.47.88 0 .04.01.08.01.12a1.297 1.297 0 01-1.82 1.19v.04c0 .28-.22.5-.5.5v.54c.26 0 .48.22.49.48.41-.38 1.05-.36 1.43.05.18.19.28.44.27.71a1.02 1.02 0 01-1.72.72.495.495 0 01-.49.6v.54c.2 0 .37.13.45.3.11-.01.22-.01.33-.01 2.65-.08 5.17.87 7.09 2.69a9.89 9.89 0 013.1 7.91c.22.05.38.24.39.47h.54c.01-.25.21-.46.46-.48-.13-.54.2-1.09.74-1.23.08-.02.17-.03.25-.03.56.01 1.01.47 1 1.03 0 .12-.03.24-.07.35.1.09.16.22.17.36h.54c.01-.27.23-.49.5-.49.04 0 .08.01.12.01-.05-.13-.07-.28-.07-.43 0-.72.58-1.3 1.3-1.3.04 0 .08 0 .12.01.66.06 1.18.62 1.18 1.29 0 .35-.14.67-.37.9h.32c.01-.27.23-.49.5-.49s.49.22.5.49h.25c.01-.3.02-.6.02-.9.05-10.13-8.17-18.35-18.32-18.35zM72 12.18a1.3 1.3 0 01-.25 1.73.36.36 0 01-.1.07c-.59.4-1.4.25-1.8-.34-.4-.59-.25-1.4.34-1.8.03-.02.07-.04.1-.06.59-.33 1.33-.16 1.71.4zM69.95 9.7c.47.47.51 1.23.08 1.75-.03.03-.05.06-.08.09-.51.51-1.33.51-1.84 0a1.298 1.298 0 01.09-1.92c.52-.43 1.27-.4 1.75.08zm-2.57-2.11c.6.4.75 1.21.36 1.8-.4.6-1.21.75-1.8.35-.6-.4-.75-1.21-.35-1.8l.07-.1c.41-.51 1.16-.63 1.72-.25zm-3.25-1.71c.62.25.96.93.77 1.57-.01.04-.03.08-.04.12a1.295 1.295 0 11-2.41-.95.37.37 0 01.05-.11c.29-.6 1-.88 1.63-.63zm-2.76 4.07c-.11.54-.65.89-1.19.78h-.01c-.54-.11-.89-.65-.78-1.19v-.01c.11-.55.65-.9 1.2-.78.55.12.9.66.78 1.2zm-.91-2.43c-.71-.13-1.17-.81-1.04-1.51l.03-.12c.18-.64.82-1.05 1.49-.92.66.12 1.12.72 1.06 1.38 0 .04-.01.08-.01.12-.14.71-.82 1.18-1.53 1.05zm3.36 3.46c-.23.51-.82.74-1.33.51h-.01c-.51-.23-.74-.83-.51-1.33.23-.51.83-.74 1.33-.51.52.22.75.82.52 1.33zm.57 1.6a1.01 1.01 0 111.17-1.65c.46.32.56.96.24 1.41-.33.46-.96.57-1.41.24zM66 13.97a1.011 1.011 0 111.46-1.4 1.011 1.011 0 01-1.46 1.4zm1.36 1.72c-.3-.47-.17-1.1.31-1.4.47-.3 1.1-.17 1.4.31a1.015 1.015 0 01-1.71 1.09zm1.06 2.11c-.2-.52.06-1.1.59-1.3.52-.2 1.11.07 1.3.59.2.52-.06 1.1-.59 1.3-.52.2-1.1-.06-1.3-.59zm1.74 2.95c-.55.09-1.07-.28-1.17-.82-.09-.55.28-1.07.82-1.17.55-.09 1.07.28 1.17.82.1.55-.27 1.08-.82 1.17zm1.04-4.64c-.28-.66.03-1.42.69-1.71.04-.01.08-.03.12-.04.64-.2 1.32.11 1.59.73.26.62.01 1.33-.57 1.65l-.13.06a1.3 1.3 0 01-1.7-.69zm2.54 3.9c-.69.2-1.41-.19-1.61-.88l-.03-.12c-.14-.7.32-1.39 1.02-1.52.04-.01.08-.01.12-.02.67-.07 1.27.39 1.4 1.04.13.66-.27 1.31-.9 1.5z" fill="url(#paint5_linear)"/><path d="M57.03 9.22c-.06.03-.13.05-.21.05v.54c.09 0 .18.03.26.08-.06-.13-.09-.28-.09-.42 0-.09.02-.17.04-.25z" fill="#FFC10E"/><path d="M57.03 9.22c-.06.03-.13.05-.21.05v.54c.09 0 .18.03.26.08-.06-.13-.09-.28-.09-.42 0-.09.02-.17.04-.25z" fill="url(#paint6_linear)"/><path d="M73.79 20.52c-.04 0-.08-.01-.12-.01-.72 0-1.3.58-1.3 1.3 0 .15.03.29.07.43.22.05.38.24.38.47h.54c0-.28.22-.5.5-.5.27 0 .5.22.5.5h.23c.22-.23.37-.55.37-.9 0-.67-.51-1.23-1.17-1.29zM62.9 11.58a1.01 1.01 0 100-2.02 1.01 1.01 0 000 2.02zM64.97 12.77a1.01 1.01 0 100-2.02 1.01 1.01 0 000 2.02zM70.18 20.98a1.016 1.016 0 00-1 1.26h.04c.27 0 .49.22.5.49h.54c.01-.28.24-.49.51-.49.12 0 .23.05.32.13.04-.11.07-.23.07-.35a.99.99 0 00-.98-1.04s.01 0 0 0zM60.38 10.75a1.01 1.01 0 100-2.02 1.01 1.01 0 000 2.02zM67.428 13.984a1.01 1.01 0 10-1.4-1.457 1.01 1.01 0 001.4 1.457zM69.99 20.76a1.01 1.01 0 100-2.02 1.01 1.01 0 000 2.02zM68.21 16.16a1.01 1.01 0 100-2.02 1.01 1.01 0 000 2.02zM69.37 18.46a1.01 1.01 0 100-2.02 1.01 1.01 0 000 2.02zM59.02 9.5c.01-.56-.44-1.02-1-1.03-.27 0-.52.1-.7.27v.02c0 .2-.12.37-.29.45-.02.08-.03.17-.04.25 0 .15.03.29.09.42.12.07.2.19.23.32.18.17.42.28.69.28a.997.997 0 001.02-.98zm12.18 6.61c.28.66 1.04.97 1.7.69a.3.3 0 00.11-.06c.59-.32.84-1.04.57-1.65-.26-.62-.95-.93-1.59-.73-.04.01-.08.03-.12.04a1.32 1.32 0 00-.67 1.71zm-3.09-4.57c.51.51 1.33.51 1.84 0 .03-.03.06-.06.08-.09.43-.52.39-1.27-.08-1.75-.48-.47-1.23-.51-1.75-.08-.03.03-.06.05-.09.08-.51.51-.51 1.33 0 1.84zm1.74 2.1c.4.59 1.21.75 1.8.35l.1-.07c.52-.43.62-1.18.25-1.73a1.3 1.3 0 00-1.81-.34c-.59.39-.75 1.2-.34 1.79zM59.13 5.98c0-.04 0-.08-.01-.12a1.302 1.302 0 00-2.3-.7v.01c.27 0 .5.23.5.5 0 .28-.22.5-.5.5v.54a.5.5 0 01.49.46 1.297 1.297 0 001.82-1.19zm12.96 13.03c.14.7.82 1.16 1.52 1.03l.12-.03c.64-.19 1.04-.83.91-1.5-.13-.66-.74-1.11-1.4-1.04-.04 0-.08.01-.12.02-.7.13-1.16.82-1.03 1.52zm-6.16-9.27c.6.4 1.4.24 1.8-.35.02-.03.04-.07.06-.1.32-.58.15-1.32-.42-1.7-.56-.37-1.31-.26-1.73.26a.36.36 0 00-.07.1c-.39.58-.24 1.39.36 1.79zm-5.47-2.22c.7.13 1.38-.34 1.51-1.04.01-.04.01-.08.01-.12a1.3 1.3 0 00-1.06-1.39c-.66-.12-1.3.29-1.49.92l-.03.12c-.11.7.36 1.38 1.06 1.51zm2.71.78c.67.26 1.42-.06 1.68-.73.02-.04.03-.08.04-.12.19-.64-.15-1.32-.77-1.57-.63-.25-1.33.03-1.63.62-.02.04-.04.07-.05.11-.26.67.07 1.42.73 1.69z" fill="#fff"/><path d="M67.81 21.25a9.812 9.812 0 00-3.12-6.91 9.83 9.83 0 00-7.09-2.69c-.11 0-.22.01-.33.01.03.06.04.13.04.2 0 .28-.22.5-.5.5v.54c.23 0 .42.16.47.37.12-.01.23-.01.35-.02 2.21-.07 4.32.73 5.94 2.25a8.265 8.265 0 012.61 5.79c.01.32 0 .63-.03.94.25.02.45.23.47.48h.54a.506.506 0 01.61-.48c.04-.31.05-.65.04-.98z" fill="#FFC10E"/><path d="M67.81 21.25a9.812 9.812 0 00-3.12-6.91 9.83 9.83 0 00-7.09-2.69c-.11 0-.22.01-.33.01.03.06.04.13.04.2 0 .28-.22.5-.5.5v.54c.23 0 .42.16.47.37.12-.01.23-.01.35-.02 2.21-.07 4.32.73 5.94 2.25a8.265 8.265 0 012.61 5.79c.01.32 0 .63-.03.94.25.02.45.23.47.48h.54a.506.506 0 01.61-.48c.04-.31.05-.65.04-.98z" fill="url(#paint7_linear)"/><path d="M67.81 21.25a9.812 9.812 0 00-3.12-6.91 9.83 9.83 0 00-7.09-2.69c-.11 0-.22.01-.33.01.03.06.04.13.04.2 0 .28-.22.5-.5.5v.54c.23 0 .42.16.47.37.12-.01.23-.01.35-.02 2.21-.07 4.32.73 5.94 2.25a8.265 8.265 0 012.61 5.79c.01.32 0 .63-.03.94.25.02.45.23.47.48h.54a.506.506 0 01.61-.48c.04-.31.05-.65.04-.98z" fill="url(#paint8_linear)"/><path d="M62.97 21.39a5.027 5.027 0 00-1.59-3.53 5.021 5.021 0 00-3.63-1.38c-.15 0-.29.02-.43.03-.01.27-.22.48-.49.49v.54a.495.495 0 01.49.5c0 .03 0 .07-.01.1a.5.5 0 01-.48.4v.54c.27 0 .5.23.5.5s-.22.5-.5.5v.54c.27 0 .5.23.5.5s-.22.5-.5.5v.54c.17 0 .32.09.41.22.07.08.11.18.11.3h.54c0-.28.22-.5.5-.5.27 0 .5.22.5.5h.54c.01-.27.23-.49.5-.49s.49.22.5.49h.54a.513.513 0 01.51-.49c.27 0 .49.22.5.49h.54c.01-.23.17-.42.38-.47.06-.24.07-.53.07-.82z" fill="url(#paint9_linear)"/><path d="M63.85 21.37a5.943 5.943 0 00-1.87-4.16 5.902 5.902 0 00-5.16-1.51v.3c.27 0 .5.23.5.5v.01c.14-.01.29-.03.43-.03 1.35-.04 2.64.45 3.63 1.38.98.93 1.55 2.18 1.59 3.53.01.29-.01.57-.04.85.04-.01.07-.01.12-.01.27 0 .49.22.5.49h.21c.07-.44.11-.89.09-1.35z" fill="#fff"/><path d="M66.19 21.3c-.06-2.2-1-4.28-2.61-5.79a8.216 8.216 0 00-5.94-2.25c-.12 0-.23.01-.35.02a.502.502 0 01-.47.64v.31c.28-.04.57-.07.85-.07 1.98-.06 3.86.65 5.3 2.01a7.369 7.369 0 012.33 5.17c.01.47-.01.94-.09 1.39h.41c.01-.27.23-.49.5-.49h.04c.03-.31.04-.63.03-.94z" fill="#fff"/><path d="M65.31 21.32a7.369 7.369 0 00-2.33-5.17 7.393 7.393 0 00-5.3-2.01c-.29.01-.57.03-.85.07v.23c.27 0 .5.23.5.5 0 .28-.22.5-.5.5v.23a5.945 5.945 0 015.16 1.51 5.906 5.906 0 011.87 4.16c.01.46-.03.91-.11 1.35h.34c.01-.27.23-.49.5-.49s.49.22.5.49h.13c.07-.43.1-.89.09-1.37z" fill="#fff"/><path d="M65.31 21.32a7.369 7.369 0 00-2.33-5.17 7.393 7.393 0 00-5.3-2.01c-.29.01-.57.03-.85.07v.23c.27 0 .5.23.5.5 0 .28-.22.5-.5.5v.23a5.945 5.945 0 015.16 1.51 5.906 5.906 0 011.87 4.16c.01.46-.03.91-.11 1.35h.34c.01-.27.23-.49.5-.49s.49.22.5.49h.13c.07-.43.1-.89.09-1.37z" fill="url(#paint10_linear)"/><path d="M47.09 20.59a3.47 3.47 0 100-6.94 3.47 3.47 0 000 6.94z" fill="#FFC10E"/><path d="M47.09 19.22a2.1 2.1 0 100-4.2 2.1 2.1 0 000 4.2zM36.42 25.45a3.47 3.47 0 100-6.94 3.47 3.47 0 000 6.94z" fill="#231F20"/><path d="M36.42 24.08a2.1 2.1 0 100-4.2 2.1 2.1 0 000 4.2z" fill="#EC1C24"/></g><defs><linearGradient id="paint0_linear" x1="45.711" y1="33.959" x2="69.95" y2="9.72" gradientUnits="userSpaceOnUse"><stop stop-color="#EC1C24"/><stop offset=".013" stop-color="#ED252D"/><stop offset=".095" stop-color="#F1585D"/><stop offset=".18" stop-color="#F58489"/><stop offset=".268" stop-color="#F8AAAD"/><stop offset=".359" stop-color="#FAC9CB"/><stop offset=".454" stop-color="#FCE1E2"/><stop offset=".554" stop-color="#FEF2F2"/><stop offset=".664" stop-color="#FFFCFC"/><stop offset=".8" stop-color="#fff"/></linearGradient><linearGradient id="paint1_linear" x1="45.711" y1="33.959" x2="69.95" y2="9.72" gradientUnits="userSpaceOnUse"><stop offset=".25" stop-color="#FFC10E"/><stop offset="1" stop-color="#fff"/></linearGradient><linearGradient id="paint2_linear" x1="67.844" y1="18.718" x2="1.032" y2="18.718" gradientUnits="userSpaceOnUse"><stop offset=".1" stop-color="#EC1C24"/><stop offset=".6" stop-color="#FFC10E"/><stop offset="1" stop-color="#fff"/></linearGradient><linearGradient id="paint3_linear" x1="53.7" y1="20.421" x2="2.589" y2="20.421" gradientUnits="userSpaceOnUse"><stop stop-color="#EC1C24"/><stop offset=".5" stop-color="#FFC10E"/><stop offset="1" stop-color="#fff"/></linearGradient><linearGradient id="paint4_linear" x1="3.526" y1="18.71" x2="65.343" y2="18.71" gradientUnits="userSpaceOnUse"><stop stop-color="#008ED3"/><stop offset="1" stop-color="#8BC53F"/></linearGradient><linearGradient id="paint5_linear" x1="72.98" y1="6.673" x2="40.242" y2="39.41" gradientUnits="userSpaceOnUse"><stop offset=".2" stop-color="#FFC10E"/><stop offset=".803" stop-color="#fff"/></linearGradient><linearGradient id="paint6_linear" x1="64.294" y1="2.288" x2="38.319" y2="28.264" gradientUnits="userSpaceOnUse"><stop stop-color="#FFC10E"/><stop offset=".041" stop-color="#FFC725"/><stop offset=".14" stop-color="#FFD458"/><stop offset=".245" stop-color="#FFDF84"/><stop offset=".352" stop-color="#FFE9AA"/><stop offset=".463" stop-color="#FFF1C9"/><stop offset=".578" stop-color="#FFF7E1"/><stop offset=".7" stop-color="#FFFCF2"/><stop offset=".834" stop-color="#FFFEFC"/><stop offset="1" stop-color="#fff"/></linearGradient><linearGradient id="paint7_linear" x1="70.774" y1="8.766" x2="44.794" y2="34.747" gradientUnits="userSpaceOnUse"><stop stop-color="#FFC10E"/><stop offset=".041" stop-color="#FFC725"/><stop offset=".14" stop-color="#FFD458"/><stop offset=".245" stop-color="#FFDF84"/><stop offset=".352" stop-color="#FFE9AA"/><stop offset=".463" stop-color="#FFF1C9"/><stop offset=".578" stop-color="#FFF7E1"/><stop offset=".7" stop-color="#FFFCF2"/><stop offset=".834" stop-color="#FFFEFC"/><stop offset="1" stop-color="#fff"/></linearGradient><linearGradient id="paint8_linear" x1="67.849" y1="17.204" x2="1.027" y2="17.204" gradientUnits="userSpaceOnUse"><stop stop-color="#EC1C24"/><stop offset=".584" stop-color="#FFC10E"/><stop offset="1" stop-color="#fff"/></linearGradient><linearGradient id="paint9_linear" x1="69.675" y1="19.623" x2="-9.181" y2="19.623" gradientUnits="userSpaceOnUse"><stop stop-color="#EC1C24"/><stop offset=".584" stop-color="#FFC10E"/><stop offset="1" stop-color="#fff"/></linearGradient><linearGradient id="paint10_linear" x1="3.534" y1="18.449" x2="65.346" y2="18.449" gradientUnits="userSpaceOnUse"><stop stop-color="#008ED3"/><stop offset="1" stop-color="#8BC53F"/></linearGradient><clipPath id="clip0"><path fill="#fff" d="M1 1h77.55v37.92H1z"/></clipPath></defs></svg>