<svg id="Old_Suncorp" data-name="Old Suncorp" xmlns="http://www.w3.org/2000/svg" viewBox="0 0 48 48"><defs><style>.cls-1{fill:#272727;}</style></defs><title>Icon-security--default</title><g id="Suncorp_Default" data-name="Suncorp Default"><g id="_4ZFxRN.tif" data-name="4ZFxRN.tif"><path class="cls-1" d="M34,19.3a1.12,1.12,0,0,1-.34.83l-8.79,8.79-1.65,1.65a1.17,1.17,0,0,1-1.65,0l-1.65-1.65-4.39-4.39a1.17,1.17,0,0,1,0-1.65l1.65-1.65a1.17,1.17,0,0,1,1.65,0L22.4,24.8l8-8a1.17,1.17,0,0,1,1.65,0l1.65,1.65A1.12,1.12,0,0,1,34,19.3Z"/><path class="cls-1" d="M24,44.31l-.15,0c-.18-.06-4.37-1.44-8.57-6.4C11.44,33.35,6.9,24.82,7.06,10a.5.5,0,0,1,.43-.49c.1,0,9.92-1.44,16.19-5.12a.5.5,0,0,1,.48,0c.1.05,9.83,5,16,5h.28a.5.5,0,0,1,.5.45c0,.26,2.53,25.8-16.73,34.48A.5.5,0,0,1,24,44.31ZM8.06,10.4C7.93,36.26,22.23,42.6,24,43.27c17-7.83,16.23-29.53,16-32.93-5.92-.08-14.44-4.2-16-5C18.2,8.64,10,10.09,8.06,10.4Z"/></g></g></svg>