<svg xmlns="http://www.w3.org/2000/svg" xmlns:xlink="http://www.w3.org/1999/xlink" version="1.1" x="0px" y="0px" width="320px" height="568px" viewBox="0 0 320 568" enable-background="new 0 0 320 568" xml:space="preserve"><g id="Layer_6"><g><defs><rect id="SVGID_1_" y="0" width="320" height="568"/></defs><clipPath id="SVGID_2_"><use xlink:href="#SVGID_1_" overflow="visible"/></clipPath><rect y="0" clip-path="url(#SVGID_2_)" fill="#78BE20" width="320" height="568"/><g opacity="0.45" clip-path="url(#SVGID_2_)"><polygon fill="#559B20" points="-77.9,496.7 -32.2,530.3 39.2,440.2"/><polygon opacity="0.2" fill="#559B20" points="15,109.7 -0.4,171.4 51.4,203.1"/><polygon opacity="0.2" fill="#559B20" points="133.4,287 82,237 39,282.9 39.4,282.9 39.4,282.9 39.4,282.9 39.4,282.9 133.4,287"/><polygon opacity="0.4" fill="#559B20" points="288.6,338 259,285.1 229.7,308.6"/><polygon fill="#559B20" points="149.1,411.8 182.5,501.3 246.4,476.4"/><polygon fill="#559B20" points="198.3,573.3 240.8,602.4 276.1,563.7"/><polygon fill="#559B20" points="246.4,476.4 336.2,508.8 288.6,422.4"/><polygon opacity="0.2" fill="#559B20" points="-28.1,66.6 15,109.7 11.9,38.7 -28.1,66.6"/><polygon opacity="0.4" fill="#559B20" points="185.7,305.4 128.7,363 196.8,386.6"/><polygon fill="#559B20" points="109.3,532.2 157.3,611.8 198.3,573.3"/><polygon opacity="0.8" fill="#559B20" points="39.4,282.9 -54.6,305.4 -6.6,353.1 39.4,282.9"/><polygon opacity="0.8" fill="#559B20" points="73.9,353.1 39.2,440.2 128.7,363"/><polygon fill="#559B20" points="39.2,440.2 109.3,532.2 105.1,467.3"/><polygon opacity="0.4" fill="#559B20" points="377.2,398.6 380,305.4 288.6,422.4"/><polygon opacity="0.6" fill="#78BE20" points="39,282.9 -10.1,243 -54.6,305.4 39.4,282.9"/><polygon fill="#78BE20" points="73.9,353.1 -28.1,413.2 39.2,440.2"/><polygon opacity="0.2" fill="#78BE20" points="-45.2,130 15,109.7 -28.1,66.6"/><polygon opacity="0.4" fill="#78BE20" points="185.7,305.4 288.6,338 229.7,308.6"/><polygon opacity="0.5" fill="#78BE20" points="288.6,422.4 288.6,338 196.8,386.6"/><polygon opacity="0.8" fill="#78BE20" points="128.7,363 39.2,440.2 149.1,411.8"/><polygon opacity="0.2" fill="#78BE20" points="288.6,338 354.3,262.5 259,285.1"/><polygon fill="#78BE20" points="240.8,602.4 336.4,584.7 276.1,563.7"/><polygon fill="#78BE20" points="198.3,573.3 336.2,508.8 246.4,476.4"/><polygon fill="#78BE20" points="105.1,467.3 109.3,532.2 182.5,501.3"/><polygon fill="#78BE20" points="20.6,521 109.3,532.2 39.2,440.2"/><polygon opacity="0.4" fill="#78BE20" points="133.7,287.1 133.4,287.3 128.7,363 185.7,305.4"/><polygon fill="#78BE20" points="16.4,632.7 71.7,603.2 20.6,521"/><polygon fill="#65B026" points="-6.6,353.1 -28.1,413.2 73.9,353.1"/><polygon fill="#65B026" points="39.2,440.2 -32.2,530.3 20.6,521"/><polygon opacity="0.2" fill="#65B026" points="11.9,38.7 -75.7,-1.4 -28.1,66.6"/><polygon opacity="0.2" fill="#65B026" points="288.6,422.4 354.3,262.5 288.6,338"/><polygon opacity="0.2" fill="#65B026" points="133.4,287 133.7,287.1 185.7,305.4 144.4,261.2 133.4,287"/><polygon opacity="0.4" fill="#65B026" points="196.8,386.6 288.6,338 185.7,305.4"/><polygon opacity="0.8" fill="#65B026" points="149.1,411.8 246.4,476.4 196.8,386.6"/><polygon fill="#65B026" points="182.5,501.3 198.3,573.3 246.4,476.4"/><polygon fill="#65B026" points="105.1,467.3 182.5,501.3 149.1,411.8"/><polygon fill="#65B026" points="276.1,563.7 336.4,584.7 336.2,508.8"/><polygon fill="#65B026" points="109.3,532.2 71.7,603.2 157.3,611.8"/><polygon opacity="0.4" fill="#65B026" points="133.4,287 39.4,282.9 73.9,353.1 73.9,353.1 133.4,287.3 133.7,287.1"/><polygon opacity="0.4" fill="#65B026" points="51.4,203.1 -10.1,243 39,282.9"/><polygon fill="#8AC439" points="-32.2,530.3 16.4,632.7 20.6,521"/><polygon fill="#8AC439" points="-28.1,413.2 -77.9,496.7 39.2,440.2"/><polygon opacity="0.8" fill="#8AC439" points="39.4,282.9 -6.6,353.1 73.9,353.1 39.4,282.9"/><polygon opacity="0.4" fill="#8AC439" points="51.4,203.1 -0.4,171.4 -10.1,243"/><polygon opacity="0.2" fill="#8AC439" points="-0.4,171.4 15,109.7 -45.2,130"/><polygon opacity="0.4" fill="#8AC439" points="133.4,287.3 73.9,353.1 73.9,353.1 73.9,353.1 128.7,363"/><polygon opacity="0.4" fill="#8AC439" points="39,282.9 82,237 51.4,203.1"/><polygon opacity="0.2" fill="#8AC439" points="133.4,287 144.4,261.2 82,237 133.4,287"/><polygon opacity="0.4" fill="#8AC439" points="229.7,308.6 259,285.1 185.7,305.4"/><polygon opacity="0.8" fill="#8AC439" points="128.7,363 149.1,411.8 196.8,386.6"/><polygon fill="#8AC439" points="20.6,521 71.7,603.2 109.3,532.2"/><polygon fill="#8AC439" points="276.1,563.7 336.2,508.8 198.3,573.3"/><polygon opacity="0.8" fill="#8AC439" points="246.4,476.4 288.6,422.4 196.8,386.6"/><polygon fill="#8AC439" points="182.5,501.3 109.3,532.2 198.3,573.3"/><polygon fill="#8AC439" points="39.2,440.2 105.1,467.3 149.1,411.8"/><polygon opacity="0.2" fill="#8AC439" points="380,305.4 354.3,262.5 288.6,422.4"/><polygon opacity="0.8" fill="#8AC439" points="336.2,508.8 377.2,398.6 288.6,422.4"/></g></g></g><g id="Layer_2"></g></svg>