<svg xmlns="http://www.w3.org/2000/svg" xmlns:xlink="http://www.w3.org/1999/xlink" version="1.1" x="0px" y="0px" width="1024px" height="768px" viewBox="0 0 1024 768" enable-background="new 0 0 1024 768" xml:space="preserve">
<g id="Layer_6">
	<g>
		<defs>
			<rect id="SVGID_1_" width="1024" height="768"/>
		</defs>
		<clipPath id="SVGID_2_">
			<use xlink:href="#SVGID_1_" overflow="visible"/>
		</clipPath>
		<rect clip-path="url(#SVGID_2_)" fill="#78BE20" width="1024" height="768"/>
		<g opacity="0.45" clip-path="url(#SVGID_2_)">
			<polyline opacity="0.4" fill="#559B20" points="1052.8,502.9 944.1,402.4 975.6,572.3"/>
			<polygon fill="#559B20" points="1080.3,776.5 846.7,709.8 934.7,849.3"/>
			<polygon fill="#559B20" points="-58.8,766.3 14.2,820.1 128.3,676.1"/>
			<polygon opacity="0.2" fill="#559B20" points="89.6,147.7 65.1,246.4 147.7,297.1"/>
			<polygon opacity="0.2" fill="#559B20" points="278.9,431.1 196.8,351.1 127.9,424.6 128.5,424.6 128.6,424.6 128.6,424.6 128.6,424.6 278.9,431.1"/>
			<polygon opacity="0.4" fill="#559B20" points="527,512.7 479.7,428.1 432.8,465.7"/>
			<polygon fill="#559B20" points="304,630.6 357.4,773.7 459.6,734"/>
			<polygon fill="#559B20" points="459.6,734 603.1,785.8 527,647.6"/>
			<polygon opacity="0.2" fill="#559B20" points="894.5,486.2 825,402.4 673.1,460.6"/>
			<polygon opacity="0.2" fill="#559B20" points="944.1,402.4 939,351.7 825,402.4"/>
			<polygon opacity="0.8" fill="#559B20" points="972.6,700.3 925.7,647.9 846.7,709.8"/>
			<polygon opacity="0.8" fill="#559B20" points="801.6,552.7 975.5,572.3 894.5,486.2"/>
			<polygon opacity="0.6" fill="#559B20" points="-98,335.5 -21.6,460.6 49.4,360.8"/>
			<polygon fill="#559B20" points="-90.4,564.8 -128.8,663.7 20.7,632.9"/>
			<polygon opacity="0.2" fill="#559B20" points="20.7,78.8 89.6,147.7 84.6,34.1 20.7,78.8"/>
			<polygon opacity="0.4" fill="#559B20" points="362.5,460.6 271.4,552.7 380.2,590.3"/>
			<polygon fill="#559B20" points="832.5,809.5 680.2,762.1 708.8,863.9"/>
			<polygon opacity="0.8" fill="#559B20" points="680.2,762.1 792.2,632.9 668.6,609.5"/>
			<polygon opacity="0.8" fill="#559B20" points="128.5,424.6 -21.6,460.6 55.1,536.8 128.6,424.6"/>
			<polygon opacity="0.4" fill="#559B20" points="65.1,246.4 -6.7,280 49.4,360.8"/>
			<polygon opacity="0.8" fill="#559B20" points="183.7,536.8 128.3,676.1 271.4,552.7"/>
			<polygon fill="#559B20" points="128.3,676.1 240.3,823.2 233.7,719.3"/>
			<polygon opacity="0.4" fill="#559B20" points="668.6,609.5 673.1,460.6 527,647.6"/>
			<polygon fill="#559B20" points="603.4,907.1 680.2,762.1 603.1,785.8"/>
			<polygon opacity="0.8" fill="#78BE20" points="1124,669.4 925.7,647.9 972.6,700.3"/>
			<polygon opacity="0.2" fill="#78BE20" points="944.1,402.4 1076,391.1 1119,299.2"/>
			<polygon opacity="0.6" fill="#78BE20" points="127.9,424.6 49.4,360.8 -21.6,460.6 128.5,424.6"/>
			<polygon fill="#78BE20" points="183.7,536.8 20.7,632.9 128.3,676.1"/>
			<polygon opacity="0.4" fill="#78BE20" points="-6.7,280 65.1,246.4 -6.7,180.2 -6.7,280"/>
			<polygon opacity="0.2" fill="#78BE20" points="-6.7,180.2 89.6,147.7 20.7,78.8"/>
			<polygon opacity="0.4" fill="#78BE20" points="362.5,460.6 527,512.7 432.8,465.7"/>
			<polygon opacity="0.5" fill="#78BE20" points="527,647.6 527,512.7 380.2,590.3"/>
			<polygon opacity="0.8" fill="#78BE20" points="271.4,552.7 128.3,676.1 304,630.6"/>
			<polygon opacity="0.2" fill="#78BE20" points="527,512.7 632.1,391.9 479.7,428.1"/>
			<polygon fill="#78BE20" points="382.6,888.8 603.1,785.8 459.6,734"/>
			<polygon fill="#78BE20" points="233.7,719.3 240.3,823.2 357.4,773.7"/>
			<polygon fill="#78BE20" points="98.6,805.3 240.3,823.2 128.3,676.1"/>
			<polygon opacity="0.8" fill="#78BE20" points="792.2,632.9 925.7,647.9 801.6,552.7"/>
			<polygon fill="#78BE20" points="934.7,849.3 846.7,709.8 832.5,809.5"/>
			<polygon opacity="0.8" fill="#78BE20" points="668.6,609.5 801.6,552.7 705.1,548.6"/>
			<polygon opacity="0.4" fill="#78BE20" points="801.6,552.7 894.5,486.2 673.1,460.6"/>
			<polygon opacity="0.2" fill="#78BE20" points="-32.6,58.5 -92.1,100.9 20.7,78.8"/>
			<polygon opacity="0.4" fill="#78BE20" points="279.4,431.2 278.9,431.6 271.4,552.7 362.5,460.6"/>
			<polygon fill="#78BE20" points="-90.4,564.8 20.7,632.9 55.1,536.8"/>
			<polyline opacity="0.8" fill="#65B026" points="975.6,572.3 925.7,647.9 1124,669.4"/>
			<polygon opacity="0.8" fill="#65B026" points="1124,669.4 1080.3,776.5 972.6,700.3"/>
			<polygon fill="#65B026" points="20.7,632.9 -128.8,663.7 -58.8,766.3"/>
			<polygon fill="#65B026" points="55.1,536.8 20.7,632.9 183.7,536.8"/>
			<polygon fill="#65B026" points="128.3,676.1 14.2,820.1 98.6,805.3"/>
			<polygon opacity="0.2" fill="#65B026" points="84.6,34.1 -55.3,-30 20.7,78.8"/>
			<polygon opacity="0.6" fill="#65B026" points="-6.7,280 -98,335.5 49.4,360.8 -6.7,280"/>
			<polygon opacity="0.2" fill="#65B026" points="527,647.6 632.1,391.9 527,512.7"/>
			<polygon opacity="0.2" fill="#65B026" points="278.9,431.1 279.4,431.2 362.5,460.6 296.6,389.8 278.9,431.1"/>
			<polygon opacity="0.4" fill="#65B026" points="380.2,590.3 527,512.7 362.5,460.6"/>
			<polygon opacity="0.8" fill="#65B026" points="304,630.6 459.6,734 380.2,590.3"/>
			<polygon fill="#65B026" points="357.4,773.7 382.6,888.8 459.6,734"/>
			<polygon fill="#65B026" points="233.7,719.3 357.4,773.7 304,630.6"/>
			<polygon opacity="0.2" fill="#65B026" points="673.1,460.6 825,402.4 632.1,391.9"/>
			<polygon opacity="0.8" fill="#65B026" points="846.7,709.8 925.7,647.9 792.2,632.9"/>
			<polygon opacity="0.8" fill="#65B026" points="792.2,632.9 801.6,552.7 668.6,609.5"/>
			<polygon opacity="0.8" fill="#65B026" points="603.1,785.8 680.2,762.1 668.6,609.5"/>
			<polygon opacity="0.4" fill="#65B026" points="975.5,572.3 944.1,402.4 894.5,486.2"/>
			<polygon opacity="0.4" fill="#65B026" points="705.1,548.6 801.6,552.7 673.1,460.6"/>
			<polygon fill="#65B026" points="832.5,809.5 846.7,709.8 680.2,762.1"/>
			<polygon fill="#65B026" points="708.8,863.9 680.2,762.1 603.4,907.1"/>
			<polygon opacity="0.2" fill="#65B026" points="20.7,78.8 -92.1,100.9 -6.7,180.2"/>
			<polygon opacity="0.4" fill="#65B026" points="278.9,431.1 128.6,424.6 183.7,536.8 183.7,536.8 278.9,431.6 279.4,431.2"/>
			<polygon opacity="0.4" fill="#65B026" points="147.7,297.1 49.4,360.8 127.9,424.6"/>
			<polygon fill="#8AC439" points="972.6,700.3 846.7,709.8 1080.3,776.5"/>
			<polygon opacity="0.2" fill="#8AC439" points="944.1,402.4 939,351.7 1119,299.2"/>
			<polygon fill="#8AC439" points="20.7,632.9 -58.8,766.3 128.3,676.1"/>
			<polygon opacity="0.8" fill="#8AC439" points="128.6,424.6 55.1,536.8 183.7,536.8 128.6,424.6"/>
			<polygon opacity="0.8" fill="#8AC439" points="-21.6,460.6 -90.4,564.8 55.1,536.8"/>
			<polygon opacity="0.4" fill="#8AC439" points="147.7,297.1 65.1,246.4 49.4,360.8"/>
			<polygon opacity="0.2" fill="#8AC439" points="65.1,246.4 89.6,147.7 -6.7,180.2"/>
			<polygon opacity="0.2" fill="#8AC439" points="-32.6,58.5 20.7,78.8 -55.3,-30"/>
			<polygon opacity="0.4" fill="#8AC439" points="278.9,431.6 183.7,536.8 183.7,536.8 183.7,536.8 271.4,552.7"/>
			<polygon opacity="0.4" fill="#8AC439" points="127.9,424.6 196.8,351.1 147.7,297.1"/>
			<polygon opacity="0.2" fill="#8AC439" points="278.9,431.1 296.6,389.8 196.8,351.1 278.9,431.1"/>
			<polygon opacity="0.4" fill="#8AC439" points="432.8,465.7 479.7,428.1 362.5,460.6"/>
			<polygon opacity="0.8" fill="#8AC439" points="271.4,552.7 304,630.6 380.2,590.3"/>
			<polygon opacity="0.8" fill="#8AC439" points="459.6,734 527,647.6 380.2,590.3"/>
			<polygon fill="#8AC439" points="128.3,676.1 233.7,719.3 304,630.6"/>
			<polygon opacity="0.2" fill="#8AC439" points="673.1,460.6 632.1,391.9 527,647.6"/>
			<polygon opacity="0.2" fill="#8AC439" points="894.5,486.2 944.1,402.4 825,402.4"/>
			<polygon opacity="0.8" fill="#8AC439" points="603.1,785.8 668.6,609.5 527,647.6"/>
			<polygon opacity="0.4" fill="#8AC439" points="705.1,548.6 673.1,460.6 668.6,609.5"/>
			<polygon opacity="0.8" fill="#8AC439" points="925.7,647.9 975.5,572.3 801.6,552.7"/>
			<polygon opacity="0.8" fill="#8AC439" points="680.2,762.1 846.7,709.8 792.2,632.9"/>
			<polygon opacity="0.4" fill="#8AC439" points="1076,391.1 944.1,402.4 1052.8,502.9"/>
			<polygon opacity="0.6" fill="#8AC439" points="1052.8,502.9 1124,669.4 975.6,572.3"/>
		</g>
	</g>
</g>
<g id="Layer_2">
</g>
</svg>
