<svg xmlns="http://www.w3.org/2000/svg" xmlns:xlink="http://www.w3.org/1999/xlink" version="1.1" x="0px" y="0px" width="768px" height="1024px" viewBox="0 0 768 1024" enable-background="new 0 0 768 1024" xml:space="preserve"><g id="Layer_6"><g><defs><rect id="SVGID_1_" x="0" width="768" height="1024"/></defs><clipPath id="SVGID_2_"><use xlink:href="#SVGID_1_" overflow="visible"/></clipPath><rect clip-path="url(#SVGID_2_)" fill="#78BE20" width="768" height="1024"/><g opacity="0.45" clip-path="url(#SVGID_2_)"><polygon fill="#559B20" points="-58.8,904.3 14.2,958.1 128.3,814.1"/><polygon opacity="0.2" fill="#559B20" points="89.6,285.7 65.1,384.4 147.7,435.1"/><polygon opacity="0.2" fill="#559B20" points="278.9,569.1 196.8,489.2 127.9,562.6 128.5,562.6 128.6,562.6 128.6,562.6 128.6,562.6 278.9,569.1"/><polygon opacity="0.4" fill="#559B20" points="527,650.7 479.7,566.1 432.8,603.7"/><polygon fill="#559B20" points="304,768.6 357.4,911.7 459.6,872"/><polygon fill="#559B20" points="382.6,1026.8 450.6,1073.3 507,1011.4"/><polygon fill="#559B20" points="459.6,872 603.1,923.8 527,785.6"/><polygon opacity="0.2" fill="#559B20" points="894.5,624.2 825,540.5 673.1,598.6"/><polygon opacity="0.6" fill="#559B20" points="-98,473.5 -21.6,598.6 49.4,498.8"/><polygon fill="#559B20" points="-90.4,702.8 -128.8,801.7 20.7,770.9"/><polygon opacity="0.2" fill="#559B20" points="20.7,216.8 89.6,285.7 84.6,172.2 20.7,216.8"/><polygon opacity="0.4" fill="#559B20" points="362.5,598.6 271.4,690.7 380.2,728.3"/><polygon fill="#559B20" points="240.3,961.2 317.1,1088.3 382.6,1026.8"/><polygon fill="#559B20" points="832.5,947.5 680.2,900.1 708.8,1001.9"/><polygon opacity="0.8" fill="#559B20" points="680.2,900.1 792.2,770.9 668.6,747.5"/><polygon opacity="0.8" fill="#559B20" points="128.5,562.6 -21.6,598.6 55.1,674.8 128.6,562.6"/><polygon opacity="0.4" fill="#559B20" points="65.1,384.4 -6.7,418 49.4,498.8"/><polygon fill="#559B20" points="7.1,1132.4 91.8,1121.8 14.2,958.1"/><polygon opacity="0.8" fill="#559B20" points="183.7,674.8 128.3,814.1 271.4,690.7"/><polygon fill="#559B20" points="128.3,814.1 240.3,961.2 233.7,857.3"/><polygon opacity="0.4" fill="#559B20" points="668.6,747.5 673.1,598.6 527,785.6"/><polygon fill="#559B20" points="603.4,1045.1 680.2,900.1 603.1,923.8"/><polygon opacity="0.6" fill="#78BE20" points="127.9,562.6 49.4,498.8 -21.6,598.6 128.5,562.6"/><polygon fill="#78BE20" points="183.7,674.8 20.7,770.9 128.3,814.1"/><polygon opacity="0.4" fill="#78BE20" points="-6.7,418 65.1,384.4 -6.7,318.2 -6.7,418"/><polygon opacity="0.2" fill="#78BE20" points="-6.7,318.2 89.6,285.7 20.7,216.8"/><polygon fill="#78BE20" points="-25.7,1047.3 14.2,958.1 -91.4,982.3"/><polygon opacity="0.4" fill="#78BE20" points="362.5,598.6 527,650.7 432.8,603.7"/><polygon opacity="0.5" fill="#78BE20" points="527,785.6 527,650.7 380.2,728.3"/><polygon opacity="0.8" fill="#78BE20" points="271.4,690.7 128.3,814.1 304,768.6"/><polygon opacity="0.2" fill="#78BE20" points="527,650.7 632.1,529.9 479.7,566.1"/><polygon fill="#78BE20" points="450.6,1073.3 603.4,1045.1 507,1011.4"/><polygon fill="#78BE20" points="382.6,1026.8 603.1,923.8 459.6,872"/><polygon fill="#78BE20" points="233.7,857.3 240.3,961.2 357.4,911.7"/><polygon fill="#78BE20" points="98.6,943.3 240.3,961.2 128.3,814.1"/><polygon opacity="0.8" fill="#78BE20" points="668.6,747.5 801.6,690.7 705.1,686.6"/><polygon opacity="0.4" fill="#78BE20" points="801.6,690.7 894.5,624.2 673.1,598.6"/><polygon opacity="0.2" fill="#78BE20" points="-32.6,196.5 -92.1,238.9 20.7,216.8"/><polygon opacity="0.4" fill="#78BE20" points="279.4,569.2 278.9,569.6 271.4,690.7 362.5,598.6"/><polygon fill="#78BE20" points="-90.4,702.8 20.7,770.9 55.1,674.8"/><polygon fill="#78BE20" points="91.8,1121.8 180.2,1074.7 98.6,943.3"/><polygon fill="#65B026" points="20.7,770.9 -128.8,801.7 -58.8,904.3"/><polygon fill="#65B026" points="55.1,674.8 20.7,770.9 183.7,674.8"/><polygon fill="#65B026" points="-91.4,982.3 14.2,958.1 -58.8,904.3"/><polygon fill="#65B026" points="128.3,814.1 14.2,958.1 98.6,943.3"/><polygon opacity="0.2" fill="#65B026" points="84.6,172.1 -55.3,108 20.7,216.8"/><polygon opacity="0.6" fill="#65B026" points="-6.7,418 -98,473.5 49.4,498.8 -6.7,418"/><polygon opacity="0.2" fill="#65B026" points="527,785.6 632.1,529.9 527,650.7"/><polygon opacity="0.2" fill="#65B026" points="278.9,569.1 279.4,569.2 362.5,598.6 296.6,527.8 278.9,569.1"/><polygon opacity="0.4" fill="#65B026" points="380.2,728.3 527,650.7 362.5,598.6"/><polygon opacity="0.8" fill="#65B026" points="304,768.6 459.6,872 380.2,728.3"/><polygon fill="#65B026" points="357.4,911.7 382.6,1026.8 459.6,872"/><polygon fill="#65B026" points="233.7,857.3 357.4,911.7 304,768.6"/><polygon fill="#65B026" points="507,1011.4 603.4,1045.1 603.1,923.8"/><polygon fill="#65B026" points="240.3,961.2 180.2,1074.7 317.1,1088.3"/><polygon opacity="0.2" fill="#65B026" points="673.1,598.6 825,540.5 632.1,529.9"/><polygon opacity="0.8" fill="#65B026" points="792.2,770.9 801.6,690.7 668.6,747.5"/><polygon opacity="0.8" fill="#65B026" points="603.1,923.8 680.2,900.1 668.6,747.5"/><polygon opacity="0.4" fill="#65B026" points="705.1,686.6 801.6,690.7 673.1,598.6"/><polygon fill="#65B026" points="779.1,1090.7 832.5,947.5 708.8,1001.9"/><polygon fill="#65B026" points="832.5,947.5 846.7,847.8 680.2,900.1"/><polygon fill="#65B026" points="708.8,1001.9 680.2,900.1 603.4,1045.1"/><polygon opacity="0.2" fill="#65B026" points="20.7,216.8 -92.1,238.9 -6.7,318.2"/><polygon opacity="0.4" fill="#65B026" points="278.9,569.1 128.6,562.6 183.7,674.8 183.7,674.8 278.9,569.6 279.4,569.2"/><polygon opacity="0.4" fill="#65B026" points="147.7,435.1 49.4,498.8 127.9,562.6"/><polygon fill="#8AC439" points="14.2,958.1 91.8,1121.8 98.6,943.3"/><polygon fill="#8AC439" points="20.7,770.9 -58.8,904.3 128.3,814.1"/><polygon opacity="0.8" fill="#8AC439" points="128.6,562.6 55.1,674.8 183.7,674.8 128.6,562.6"/><polygon opacity="0.8" fill="#8AC439" points="-21.6,598.6 -90.4,702.8 55.1,674.8"/><polygon opacity="0.4" fill="#8AC439" points="147.7,435.1 65.1,384.4 49.4,498.8"/><polygon opacity="0.2" fill="#8AC439" points="65.1,384.4 89.6,285.7 -6.7,318.2"/><polygon opacity="0.2" fill="#8AC439" points="-32.6,196.5 20.7,216.8 -55.3,108"/><polygon fill="#8AC439" points="-25.7,1047.3 7.1,1132.4 14.2,958.1"/><polygon opacity="0.4" fill="#8AC439" points="278.9,569.6 183.7,674.8 183.7,674.8 183.7,674.8 271.4,690.7"/><polygon opacity="0.4" fill="#8AC439" points="127.9,562.6 196.8,489.2 147.7,435.1"/><polygon opacity="0.2" fill="#8AC439" points="278.9,569.1 296.6,527.8 196.8,489.2 278.9,569.1"/><polygon opacity="0.4" fill="#8AC439" points="432.8,603.7 479.7,566.1 362.5,598.6"/><polygon opacity="0.8" fill="#8AC439" points="271.4,690.7 304,768.6 380.2,728.3"/><polygon fill="#8AC439" points="98.6,943.3 180.2,1074.7 240.3,961.2"/><polygon fill="#8AC439" points="507,1011.4 603.1,923.8 382.6,1026.8"/><polygon opacity="0.8" fill="#8AC439" points="459.6,872 527,785.6 380.2,728.3"/><polygon fill="#8AC439" points="357.4,911.7 240.3,961.2 382.6,1026.8"/><polygon fill="#8AC439" points="128.3,814.1 233.7,857.3 304,768.6"/><polygon opacity="0.2" fill="#8AC439" points="673.1,598.6 632.1,529.9 527,785.6"/><polygon opacity="0.8" fill="#8AC439" points="603.1,923.8 668.6,747.5 527,785.6"/><polygon opacity="0.4" fill="#8AC439" points="705.1,686.6 673.1,598.6 668.6,747.5"/><polygon fill="#8AC439" points="603.4,1045.1 779.1,1090.7 708.8,1001.9"/><polygon opacity="0.8" fill="#8AC439" points="680.2,900.1 846.7,847.8 792.2,770.9"/></g></g></g><g id="Layer_2"></g></svg>